<?xml version="1.0" encoding="UTF-8" standalone="no"?>
<!-- Created with Inkscape (http://www.inkscape.org/) -->

<svg
   width="129.66974mm"
   height="42.005707mm"
   viewBox="0 0 129.66974 42.005707"
   version="1.1"
   id="svg1"
   inkscape:version="1.3.2 (091e20e, 2023-11-25, custom)"
   sodipodi:docname="process.svg"
   xmlns:inkscape="http://www.inkscape.org/namespaces/inkscape"
   xmlns:sodipodi="http://sodipodi.sourceforge.net/DTD/sodipodi-0.dtd"
   xmlns="http://www.w3.org/2000/svg"
   xmlns:svg="http://www.w3.org/2000/svg">
  <sodipodi:namedview
     id="namedview1"
     pagecolor="#ffffff"
     bordercolor="#000000"
     borderopacity="0.25"
     inkscape:showpageshadow="2"
     inkscape:pageopacity="0.0"
     inkscape:pagecheckerboard="0"
     inkscape:deskcolor="#d1d1d1"
     inkscape:document-units="mm"
     inkscape:zoom="2.2299457"
     inkscape:cx="207.62837"
     inkscape:cy="79.82257"
     inkscape:window-width="1920"
     inkscape:window-height="1004"
     inkscape:window-x="3832"
     inkscape:window-y="-8"
     inkscape:window-maximized="1"
     inkscape:current-layer="layer1" />
  <defs
     id="defs1">
    <marker
       style="overflow:visible"
       id="ArrowTriangleStylized"
       refX="0"
       refY="0"
       orient="auto-start-reverse"
       inkscape:stockid="Stylized triangle arrow"
       markerWidth="1"
       markerHeight="1"
       viewBox="0 0 1 1"
       inkscape:isstock="true"
       inkscape:collect="always"
       preserveAspectRatio="xMidYMid">
      <path
         transform="scale(0.5)"
         style="fill:context-stroke;fill-rule:evenodd;stroke:context-stroke;stroke-width:1pt"
         d="m 6,0 c -3,1 -7,3 -9,5 0,0 0,-4 2,-5 -2,-1 -2,-5 -2,-5 2,2 6,4 9,5 z"
         id="path12" />
    </marker>
  </defs>
  <g
     inkscape:label="Layer 1"
     inkscape:groupmode="layer"
     id="layer1"
     transform="translate(-20.261326,-21.786215)">
    <path
       style="fill:none;fill-opacity:1;stroke:#000000;stroke-width:0.352777;stroke-dasharray:none;stroke-dashoffset:0;stroke-opacity:1;marker-end:url(#ArrowTriangleStylized);paint-order:stroke fill markers"
       d="M 43.187374,51.929448 70.414988,39.805084"
       id="path23"
       sodipodi:nodetypes="cc" />
    <path
       style="fill:none;fill-opacity:1;stroke:#000000;stroke-width:0.352777;stroke-dasharray:none;stroke-dashoffset:0;stroke-opacity:1;marker-end:url(#ArrowTriangleStylized);paint-order:stroke fill markers"
       d="M 43.306025,36.517788 H 70.388052"
       id="path24" />
    <path
       style="fill:none;fill-opacity:1;stroke:#000000;stroke-width:0.352777;stroke-dasharray:none;stroke-dashoffset:0;stroke-opacity:1;marker-end:url(#ArrowTriangleStylized);paint-order:stroke fill markers"
       d="m 94.148402,54.740217 h 17.771938 9.31008"
       id="path17"
       sodipodi:nodetypes="ccc" />
    <path
       style="fill:none;fill-opacity:1;stroke:#808080;stroke-width:0.352778;stroke-dasharray:1.05833, 1.05833;stroke-dashoffset:0;stroke-opacity:1;paint-order:stroke fill markers"
       d="M 57.160946,21.786215 V 63.791921"
       id="path4" />
    <path
       style="font-weight:bold;font-size:4.23333px;font-family:'CMU Sans Serif';-inkscape-font-specification:'CMU Sans Serif Bold';stroke-width:0.529167;paint-order:stroke fill markers"
       d="m 25.202871,22.071592 -0.770466,3.022598 h -0.728133 l -0.410633,-1.587499 q -0.0127,-0.04657 -0.03387,-0.1397 -0.01693,-0.09313 -0.04233,-0.2032 -0.02117,-0.110066 -0.04233,-0.207433 -0.01693,-0.09737 -0.02117,-0.156633 -0.0042,0.05927 -0.0254,0.156633 -0.01693,0.09737 -0.0381,0.207433 -0.02117,0.105833 -0.04233,0.2032 -0.02117,0.09313 -0.03387,0.143933 L 22.60784,25.09419 h -0.728133 l -0.770466,-3.022598 h 0.630766 l 0.385233,1.650999 q 0.0254,0.09737 0.05503,0.245533 0.02963,0.148166 0.05503,0.296333 0.0254,0.148166 0.0381,0.249766 0.0127,-0.105833 0.0381,-0.249766 0.0254,-0.148167 0.0508,-0.283633 0.02963,-0.1397 0.0508,-0.2159 l 0.440267,-1.693332 h 0.605366 l 0.440266,1.693332 q 0.02117,0.0762 0.04657,0.2159 0.02963,0.135466 0.05503,0.283633 0.0254,0.148166 0.0381,0.249766 0.0127,-0.105833 0.0381,-0.249766 0.0254,-0.148167 0.05503,-0.2921 0.03387,-0.148166 0.05503,-0.249766 l 0.385233,-1.650999 z m 1.579035,0.668866 q 0.04657,0 0.110066,0.0042 0.0635,0.0042 0.1016,0.0127 l -0.04657,0.592666 q -0.03387,-0.0085 -0.0889,-0.0127 -0.05503,-0.0085 -0.09737,-0.0085 -0.160866,0 -0.309033,0.05927 -0.148166,0.05503 -0.2413,0.182033 -0.0889,0.127 -0.0889,0.347133 v 1.176866 h -0.630766 v -2.311398 h 0.478366 l 0.09313,0.389466 h 0.02963 q 0.1016,-0.1778 0.2794,-0.3048 0.1778,-0.127 0.410633,-0.127 z m 0.948268,-0.863599 q 0.139699,0 0.241299,0.06773 0.1016,0.0635 0.1016,0.2413 0,0.173567 -0.1016,0.2413 -0.1016,0.06773 -0.241299,0.06773 -0.143934,0 -0.245534,-0.06773 -0.09737,-0.06773 -0.09737,-0.2413 0,-0.1778 0.09737,-0.2413 0.1016,-0.06773 0.245534,-0.06773 z m 0.313266,0.905933 v 2.311398 h -0.630766 v -2.311398 z m 1.634067,1.849965 q 0.105833,0 0.2032,-0.01693 0.09737,-0.02117 0.194733,-0.05503 v 0.4699 q -0.1016,0.04657 -0.254,0.0762 -0.148166,0.02963 -0.325966,0.02963 -0.207433,0 -0.372533,-0.06773 -0.160867,-0.06773 -0.258233,-0.232834 -0.09313,-0.165099 -0.09313,-0.465666 v -1.113366 h -0.300566 v -0.266699 l 0.347133,-0.211667 0.182033,-0.486833 h 0.402167 v 0.491067 h 0.647699 v 0.474132 h -0.647703 v 1.113366 q 0,0.131233 0.0762,0.198967 0.0762,0.0635 0.198967,0.0635 z m 1.816098,-1.892299 q 0.478367,0 0.757766,0.275167 0.2794,0.270933 0.2794,0.774699 v 0.3048 h -1.490132 q 0.0085,0.2667 0.156633,0.419099 0.1524,0.1524 0.4191,0.1524 0.220133,0 0.402166,-0.04233 0.186267,-0.04657 0.381,-0.1397 v 0.486833 q -0.173567,0.08467 -0.359833,0.122767 -0.186267,0.04233 -0.452966,0.04233 -0.347133,0 -0.613833,-0.127 -0.2667,-0.131233 -0.4191,-0.389466 -0.1524,-0.262467 -0.1524,-0.664633 0,-0.402166 0.135467,-0.6731 0.1397,-0.270933 0.385233,-0.406399 0.245533,-0.135467 0.571499,-0.135467 z m 0.0042,0.448733 q -0.186267,0 -0.3048,0.118533 -0.118533,0.118534 -0.1397,0.3683 h 0.884766 q -0.0042,-0.207433 -0.1143,-0.347133 -0.105833,-0.1397 -0.325966,-0.1397 z m 3.958196,-0.448733 q 0.372533,0 0.5969,0.2032 0.224366,0.198967 0.224366,0.643466 v 1.507066 h -0.630766 v -1.350433 q 0,-0.249766 -0.0889,-0.372533 -0.0889,-0.127 -0.283633,-0.127 -0.287866,0 -0.3937,0.198967 -0.105833,0.194733 -0.105833,0.563033 v 1.087966 h -0.630766 v -2.311398 h 0.4826 l 0.08467,0.296333 h 0.03387 q 0.110066,-0.1778 0.300566,-0.258234 0.194733,-0.08043 0.410633,-0.08043 z m 3.568695,1.193799 q 0,0.575733 -0.304799,0.888999 -0.300567,0.313267 -0.821266,0.313267 -0.321733,0 -0.575733,-0.1397 -0.249767,-0.1397 -0.3937,-0.4064 -0.143933,-0.270933 -0.143933,-0.656166 0,-0.575733 0.300566,-0.884766 0.300567,-0.309033 0.8255,-0.309033 0.325966,0 0.575732,0.1397 0.249767,0.1397 0.3937,0.4064 0.143933,0.2667 0.143933,0.647699 z m -1.595965,0 q 0,0.3429 0.110067,0.5207 0.1143,0.173566 0.368299,0.173566 0.249767,0 0.359833,-0.173566 0.1143,-0.1778 0.1143,-0.5207 0,-0.3429 -0.1143,-0.512233 -0.110066,-0.173566 -0.364066,-0.173566 -0.249766,0 -0.364066,0.173566 -0.110067,0.169333 -0.110067,0.512233 z m 3.090329,0.6985 q 0.105833,0 0.2032,-0.01693 0.09737,-0.02117 0.194733,-0.05503 v 0.4699 q -0.1016,0.04657 -0.254,0.0762 -0.148167,0.02963 -0.325966,0.02963 -0.207434,0 -0.372534,-0.06773 -0.160866,-0.06773 -0.258233,-0.232834 -0.09313,-0.165099 -0.09313,-0.465666 v -1.113373 h -0.300569 v -0.266699 l 0.347133,-0.211667 0.182033,-0.486833 h 0.402166 v 0.491067 h 0.6477 v 0.474132 h -0.6477 v 1.113366 q 0,0.131233 0.0762,0.198967 0.0762,0.0635 0.198967,0.0635 z m 1.816098,-1.892299 q 0.478366,0 0.757766,0.275167 0.2794,0.270933 0.2794,0.774699 v 0.3048 h -1.490132 q 0.0085,0.2667 0.156633,0.419099 0.1524,0.1524 0.4191,0.1524 0.220133,0 0.402166,-0.04233 0.186266,-0.04657 0.381,-0.1397 v 0.486833 q -0.173567,0.08467 -0.359833,0.122767 -0.186267,0.04233 -0.452967,0.04233 -0.347133,0 -0.613833,-0.127 -0.266699,-0.131233 -0.419099,-0.389466 -0.1524,-0.262467 -0.1524,-0.664633 0,-0.402166 0.135467,-0.6731 0.139699,-0.270933 0.385233,-0.406399 0.245533,-0.135467 0.571499,-0.135467 z m 0.0042,0.448733 q -0.186266,0 -0.304799,0.118533 -0.118534,0.118534 -0.1397,0.3683 h 0.884766 q -0.0042,-0.207433 -0.1143,-0.347133 -0.105833,-0.1397 -0.325967,-0.1397 z m 3.158062,1.219199 q 0,0.351367 -0.249766,0.541866 -0.245533,0.186267 -0.736599,0.186267 -0.2413,0 -0.414867,-0.03387 -0.173566,-0.02963 -0.347133,-0.1016 v -0.520699 q 0.186267,0.08467 0.402167,0.1397 0.215899,0.05503 0.380999,0.05503 0.182033,0 0.262467,-0.05503 0.08043,-0.05503 0.08043,-0.143934 0,-0.05927 -0.03387,-0.105833 -0.02963,-0.04657 -0.135466,-0.105833 -0.105834,-0.05927 -0.3302,-0.1524 -0.220133,-0.09313 -0.359833,-0.182033 -0.135467,-0.09313 -0.2032,-0.220133 -0.06773,-0.131233 -0.06773,-0.325967 0,-0.321733 0.249766,-0.482599 0.249767,-0.160867 0.664633,-0.160867 0.2159,0 0.410633,0.04233 0.194733,0.04233 0.402166,0.139699 l -0.190499,0.452967 q -0.169334,-0.07197 -0.321733,-0.118534 -0.1524,-0.0508 -0.309034,-0.0508 -0.279399,0 -0.279399,0.1524 0,0.05503 0.03387,0.1016 0.0381,0.04233 0.1397,0.09313 0.105833,0.0508 0.309033,0.135466 0.198967,0.08043 0.3429,0.169333 0.143933,0.08467 0.220133,0.2159 0.08043,0.131233 0.08043,0.334433 z"
       id="text1"
       aria-label="Write notes" />
    <g
       id="g9"
       transform="translate(-38.715962,-17.514954)">
      <rect
         style="fill:none;fill-opacity:1;stroke:#000000;stroke-width:0.529167;stroke-dasharray:none;stroke-opacity:1;paint-order:stroke fill markers"
         id="rect1"
         width="22.277084"
         height="9.792675"
         x="59.530327"
         y="67.358833"
         ry="0.94920099"
         rx="0.94920093" />
      <path
         style="font-weight:500;font-size:4.23333px;font-family:'CMU Sans Serif';-inkscape-font-specification:'CMU Sans Serif Medium';stroke-width:0.529167;paint-order:stroke fill markers"
         d="m 64.70573,73.349678 v -3.022597 h 0.381 v 2.683931 h 1.320799 v 0.338666 z m 4.140198,-1.138766 q 0,0.563033 -0.287867,0.872066 -0.283633,0.309033 -0.770466,0.309033 -0.300566,0 -0.537633,-0.135466 -0.232833,-0.1397 -0.368299,-0.402167 -0.135467,-0.266699 -0.135467,-0.643466 0,-0.563033 0.2794,-0.867832 0.283633,-0.3048 0.774699,-0.3048 0.3048,0 0.541866,0.1397 0.237067,0.135466 0.3683,0.397933 0.135467,0.258233 0.135467,0.634999 z m -1.714499,0 q 0,0.402167 0.156633,0.639233 0.160867,0.232833 0.508,0.232833 0.3429,0 0.503766,-0.232833 0.160867,-0.237066 0.160867,-0.639233 0,-0.402166 -0.160867,-0.630766 -0.160866,-0.2286 -0.508,-0.2286 -0.347133,0 -0.503766,0.2286 -0.156633,0.2286 -0.156633,0.630766 z m 3.213095,1.181099 q -0.304799,0 -0.537633,-0.122766 -0.232833,-0.122767 -0.368299,-0.381 -0.131234,-0.258233 -0.131234,-0.660399 0,-0.4191 0.135467,-0.681566 0.1397,-0.262467 0.381,-0.385233 0.2413,-0.122767 0.546099,-0.122767 0.169333,0 0.3302,0.0381 0.1651,0.03387 0.2667,0.08467 l -0.1143,0.309033 q -0.1016,-0.0381 -0.237067,-0.07197 -0.135466,-0.03387 -0.253999,-0.03387 -0.668866,0 -0.668866,0.859366 0,0.410633 0.160866,0.630766 0.1651,0.2159 0.486833,0.2159 0.182033,0 0.325966,-0.0381 0.143934,-0.0381 0.262467,-0.09313 v 0.3302 q -0.1143,0.05927 -0.254,0.0889 -0.135467,0.03387 -0.3302,0.03387 z m 1.981197,-2.349498 q 0.414866,0 0.613832,0.182033 0.198967,0.182034 0.198967,0.579967 v 1.545165 h -0.270933 l -0.07197,-0.321733 h -0.01693 q -0.148167,0.186266 -0.313267,0.275166 -0.165099,0.0889 -0.448732,0.0889 -0.309034,0 -0.512233,-0.160866 -0.2032,-0.1651 -0.2032,-0.512233 0,-0.338666 0.2667,-0.5207 0.266699,-0.186266 0.821266,-0.203199 l 0.385233,-0.0127 v -0.135467 q 0,-0.283633 -0.122767,-0.3937 -0.122767,-0.110066 -0.347133,-0.110066 -0.1778,0 -0.338666,0.05503 -0.160867,0.0508 -0.300567,0.118533 l -0.1143,-0.2794 q 0.148167,-0.08043 0.351367,-0.135466 0.203199,-0.05927 0.423333,-0.05927 z m 0.444499,1.198033 -0.334433,0.0127 q -0.423333,0.01693 -0.588433,0.135466 -0.160866,0.118533 -0.160866,0.334433 0,0.1905 0.1143,0.2794 0.118533,0.0889 0.300566,0.0889 0.283633,0 0.474133,-0.156633 0.194733,-0.160867 0.194733,-0.491067 z m 1.443569,1.109132 h -0.372533 v -3.217331 h 0.372533 z m 1.092197,0 h -0.372533 v -3.217331 h 0.372533 z m 0.364064,-2.269065 h 0.397933 l 0.491066,1.291166 q 0.0635,0.173566 0.1143,0.325966 0.0508,0.1524 0.0762,0.2921 h 0.01693 q 0.0254,-0.105833 0.08043,-0.275166 0.05503,-0.173567 0.1143,-0.347133 l 0.461433,-1.286933 h 0.402166 l -0.977899,2.582331 q -0.122766,0.321734 -0.309033,0.512233 -0.186266,0.1905 -0.516466,0.1905 -0.1016,0 -0.1778,-0.0127 -0.0762,-0.0085 -0.131233,-0.02117 v -0.296334 q 0.04657,0.0085 0.110067,0.01693 0.06773,0.0085 0.139699,0.0085 0.194734,0 0.313267,-0.110066 0.118533,-0.110067 0.1905,-0.2921 l 0.118533,-0.300566 z"
         id="text2"
         aria-label="Locally" />
    </g>
    <path
       style="font-weight:bold;font-size:4.23333px;font-family:'CMU Sans Serif';-inkscape-font-specification:'CMU Sans Serif Bold';stroke-width:0.529167;paint-order:stroke fill markers"
       d="m 71.338359,22.308892 h 0.939799 q 0.601133,0 0.910166,0.169333 0.313267,0.169333 0.313267,0.5969 0,0.258233 -0.122767,0.436033 -0.118533,0.1778 -0.3429,0.2159 v 0.02117 q 0.148167,0.03387 0.270933,0.110067 0.127,0.07197 0.198967,0.2159 0.07197,0.143933 0.07197,0.380999 0,0.410633 -0.300566,0.643466 -0.296333,0.232834 -0.808566,0.232834 h -1.130299 z m 0.639233,1.198032 h 0.372533 q 0.2794,0 0.385233,-0.08467 0.110066,-0.0889 0.110066,-0.262467 0,-0.173566 -0.127,-0.249766 -0.126999,-0.0762 -0.402166,-0.0762 h -0.338666 z m 0,0.508 v 0.787399 h 0.419099 q 0.287867,0 0.402167,-0.110066 0.1143,-0.1143 0.1143,-0.300567 0,-0.169333 -0.118534,-0.270933 -0.114299,-0.105833 -0.419099,-0.105833 z m 4.275667,-0.994832 v 2.311398 h -0.4826 l -0.08467,-0.296334 h -0.03387 q -0.110067,0.1778 -0.3048,0.258234 -0.1905,0.08043 -0.4064,0.08043 -0.372533,0 -0.596899,-0.198967 -0.224367,-0.203199 -0.224367,-0.647699 v -1.507065 h 0.630767 v 1.350432 q 0,0.249766 0.0889,0.376766 0.0889,0.122767 0.283633,0.122767 0.287866,0 0.393699,-0.194734 0.105834,-0.198966 0.105834,-0.567266 v -1.087965 z m 0.977897,-0.905933 q 0.1397,0 0.2413,0.06773 0.1016,0.0635 0.1016,0.2413 0,0.173567 -0.1016,0.2413 -0.1016,0.06773 -0.2413,0.06773 -0.143933,0 -0.245533,-0.06773 -0.09737,-0.06773 -0.09737,-0.2413 0,-0.1778 0.09737,-0.2413 0.1016,-0.06773 0.245533,-0.06773 z m 0.313267,0.905933 v 2.311398 h -0.630766 v -2.311398 z m 1.291167,2.311398 h -0.630767 v -3.217331 h 0.630767 z m 1.392766,0.04233 q -0.385233,0 -0.630766,-0.300567 -0.2413,-0.304799 -0.2413,-0.893232 0,-0.592666 0.245534,-0.897466 0.245533,-0.3048 0.643466,-0.3048 0.249766,0 0.410633,0.09737 0.160866,0.09737 0.253999,0.2413 h 0.02117 q -0.0127,-0.06773 -0.02963,-0.194734 -0.01693,-0.131233 -0.01693,-0.266699 v -0.740833 h 0.630767 v 3.217331 h -0.4826 l -0.122767,-0.300567 h -0.0254 q -0.09313,0.143933 -0.249766,0.245533 -0.156633,0.09737 -0.4064,0.09737 z m 0.220133,-0.503766 q 0.258234,0 0.364067,-0.1524 0.105833,-0.156633 0.1143,-0.465667 v -0.06773 q 0,-0.334433 -0.105834,-0.512233 -0.101599,-0.182033 -0.380999,-0.182033 -0.207433,0 -0.325967,0.182033 -0.118533,0.1778 -0.118533,0.516467 0,0.338666 0.118533,0.512232 0.118534,0.169334 0.334433,0.169334 z m 5.355161,0.461433 h -0.639233 v -1.303866 h -1.198032 v 1.303866 h -0.639233 v -3.022598 h 0.639233 v 1.185332 h 1.198032 v -1.185332 h 0.639233 z m 1.926163,0 H 87.09058 v -2.489198 h -0.821266 v -0.5334 h 2.281765 v 0.5334 h -0.821266 z m 2.5654,0 -0.728133,-2.370665 h -0.01693 q 0.0042,0.08467 0.0127,0.254 0.0085,0.169333 0.01693,0.364066 0.0085,0.194733 0.0085,0.347133 v 1.405466 h -0.571499 v -3.022598 h 0.872066 l 0.715432,2.311398 h 0.0127 l 0.757766,-2.311398 h 0.872066 v 3.022598 h -0.596899 v -1.430866 q 0,-0.143933 0.0042,-0.3302 0.0085,-0.186266 0.0127,-0.351366 0.0085,-0.169333 0.0127,-0.254 h -0.01693 l -0.778933,2.366432 z m 2.713568,0 v -3.022598 h 0.639232 v 2.493431 h 1.227666 v 0.529167 z"
       id="text4"
       aria-label="Build HTML" />
    <g
       id="g10"
       transform="translate(-38.715962,-48.154329)">
      <path
         style="font-weight:500;font-size:4.23333px;font-family:'CMU Sans Serif';-inkscape-font-specification:'CMU Sans Serif Medium';stroke-width:0.529167;paint-order:stroke fill markers"
         d="m 65.437062,84.424104 q 0,0.4699 -0.160866,0.821266 -0.156634,0.347133 -0.4699,0.541866 -0.309033,0.194734 -0.761999,0.194734 -0.4699,0 -0.783166,-0.194734 -0.309033,-0.194733 -0.461433,-0.546099 -0.1524,-0.351367 -0.1524,-0.821266 0,-0.461433 0.1524,-0.808566 0.1524,-0.351367 0.461433,-0.5461 0.313266,-0.194733 0.787399,-0.194733 0.452966,0 0.761999,0.194733 0.309033,0.1905 0.465667,0.541867 0.160866,0.347133 0.160866,0.817032 z m -2.387598,0 q 0,0.5715 0.2413,0.901699 0.2413,0.325967 0.753533,0.325967 0.512233,0 0.749299,-0.325967 0.2413,-0.330199 0.2413,-0.901699 0,-0.571499 -0.237067,-0.893232 -0.237066,-0.325967 -0.749299,-0.325967 -0.516466,0 -0.757766,0.325967 -0.2413,0.321733 -0.2413,0.893232 z m 3.505198,1.515532 -0.859366,-2.269065 h 0.397933 l 0.482599,1.337733 q 0.03387,0.09313 0.07197,0.207433 0.0381,0.1143 0.06773,0.220133 0.02963,0.105833 0.04233,0.173567 h 0.01693 q 0.0127,-0.06773 0.04657,-0.173567 0.03387,-0.110067 0.07197,-0.220133 0.0381,-0.1143 0.07197,-0.207433 l 0.482599,-1.337733 h 0.397933 l -0.863599,2.269065 z m 2.527295,-2.311398 q 0.287867,0 0.499533,0.127 0.211667,0.127 0.321733,0.359833 0.1143,0.2286 0.1143,0.537633 v 0.224366 h -1.553632 q 0.0085,0.385233 0.194734,0.588433 0.190499,0.198967 0.529166,0.198967 0.2159,0 0.380999,-0.0381 0.169334,-0.04233 0.347133,-0.118533 v 0.325966 q -0.173566,0.0762 -0.342899,0.110067 -0.169333,0.0381 -0.402167,0.0381 -0.325966,0 -0.571499,-0.131234 -0.245533,-0.131233 -0.385233,-0.389466 -0.135467,-0.258233 -0.135467,-0.639233 0,-0.372533 0.122767,-0.639233 0.127,-0.266699 0.351366,-0.410633 0.2286,-0.143933 0.529166,-0.143933 z m -0.0042,0.3048 q -0.2667,0 -0.423333,0.173566 -0.1524,0.169334 -0.182033,0.474133 h 1.155699 q -0.0042,-0.287866 -0.135467,-0.465666 -0.131233,-0.182033 -0.414866,-0.182033 z m 2.573861,-0.3048 q 0.0635,0 0.135466,0.0085 0.07197,0.0042 0.131234,0.01693 l -0.04657,0.3429 q -0.05503,-0.0127 -0.122767,-0.02117 -0.06773,-0.0085 -0.122766,-0.0085 -0.173567,0 -0.325966,0.09737 -0.1524,0.09313 -0.245534,0.2667 -0.0889,0.169333 -0.0889,0.397933 v 1.210732 h -0.372533 v -2.269065 h 0.3048 l 0.04233,0.414867 h 0.01693 q 0.105833,-0.186267 0.2794,-0.321733 0.177799,-0.135467 0.414866,-0.135467 z m 1.062566,2.311398 h -0.372533 v -3.21733 h 0.372533 z m 1.595963,-2.311398 q 0.287866,0 0.499532,0.127 0.211667,0.127 0.321734,0.359833 0.114299,0.2286 0.114299,0.537633 v 0.224366 h -1.553632 q 0.0085,0.385233 0.194734,0.588433 0.190499,0.198967 0.529166,0.198967 0.2159,0 0.381,-0.0381 0.169333,-0.04233 0.347133,-0.118533 v 0.325966 q -0.173567,0.0762 -0.3429,0.110067 -0.169333,0.0381 -0.402166,0.0381 -0.325967,0 -0.5715,-0.131234 -0.245533,-0.131233 -0.385233,-0.389466 -0.135467,-0.258233 -0.135467,-0.639233 0,-0.372533 0.122767,-0.639233 0.127,-0.266699 0.351366,-0.410633 0.2286,-0.143933 0.529167,-0.143933 z m -0.0042,0.3048 q -0.2667,0 -0.423333,0.173566 -0.1524,0.169334 -0.182033,0.474133 h 1.155699 q -0.0042,-0.287866 -0.135466,-0.465666 -0.131234,-0.182033 -0.414867,-0.182033 z m 2.374895,-0.300566 q 0.414867,0 0.613833,0.182033 0.198967,0.182033 0.198967,0.579966 v 1.545165 h -0.270933 l -0.07197,-0.321733 h -0.01693 q -0.148167,0.186267 -0.313267,0.275167 -0.1651,0.0889 -0.448733,0.0889 -0.309033,0 -0.512233,-0.160867 -0.203199,-0.1651 -0.203199,-0.512233 0,-0.338666 0.266699,-0.520699 0.2667,-0.186267 0.821266,-0.2032 l 0.385233,-0.0127 v -0.135467 q 0,-0.283633 -0.122766,-0.3937 -0.122767,-0.110066 -0.347133,-0.110066 -0.1778,0 -0.338667,0.05503 -0.160866,0.0508 -0.300566,0.118533 l -0.1143,-0.279399 q 0.148167,-0.08043 0.351366,-0.135467 0.2032,-0.05927 0.423333,-0.05927 z m 0.4445,1.198032 -0.334433,0.0127 q -0.423333,0.01693 -0.588433,0.135466 -0.160866,0.118534 -0.160866,0.334433 0,0.1905 0.1143,0.2794 0.118533,0.0889 0.300566,0.0889 0.283633,0 0.474133,-0.156633 0.194733,-0.160867 0.194733,-0.491066 z m 2.116668,-0.872066 h -0.5715 v 1.981198 H 78.29791 v -1.981198 h -0.397933 v -0.173567 l 0.397933,-0.127 v -0.131233 q 0,-0.440266 0.1905,-0.630766 0.194733,-0.194733 0.5461,-0.194733 0.131233,0 0.245533,0.0254 0.1143,0.02117 0.194733,0.0508 l -0.09737,0.2921 q -0.06773,-0.02117 -0.156633,-0.04233 -0.0889,-0.02117 -0.182033,-0.02117 -0.186267,0 -0.2794,0.127 -0.0889,0.122766 -0.0889,0.389466 v 0.148166 h 0.5715 z"
         id="text3"
         aria-label="Overleaf" />
      <rect
         style="fill:none;fill-opacity:1;stroke:#000000;stroke-width:0.529167;stroke-dasharray:none;stroke-opacity:1;paint-order:stroke fill markers"
         id="rect9"
         width="22.277084"
         height="9.792675"
         x="59.530327"
         y="79.77578"
         ry="0.94920099"
         rx="0.94920093" />
    </g>
    <g
       id="g11"
       transform="translate(12.30359,-17.514954)">
      <rect
         style="fill:none;fill-opacity:1;stroke:#000000;stroke-width:0.529167;stroke-dasharray:none;stroke-opacity:1;paint-order:stroke fill markers"
         id="rect10"
         width="22.277084"
         height="9.792675"
         x="59.530327"
         y="67.358833"
         ry="0.94920099"
         rx="0.94920093" />
      <path
         style="font-weight:500;font-size:4.23333px;font-family:'CMU Sans Serif';-inkscape-font-specification:'CMU Sans Serif Medium';stroke-width:0.529167;paint-order:stroke fill markers"
         d="m 64.70573,73.349678 v -3.022597 h 0.381 v 2.683931 h 1.320799 v 0.338666 z m 4.140198,-1.138766 q 0,0.563033 -0.287867,0.872066 -0.283633,0.309033 -0.770466,0.309033 -0.300566,0 -0.537633,-0.135466 -0.232833,-0.1397 -0.368299,-0.402167 -0.135467,-0.266699 -0.135467,-0.643466 0,-0.563033 0.2794,-0.867832 0.283633,-0.3048 0.774699,-0.3048 0.3048,0 0.541866,0.1397 0.237067,0.135466 0.3683,0.397933 0.135467,0.258233 0.135467,0.634999 z m -1.714499,0 q 0,0.402167 0.156633,0.639233 0.160867,0.232833 0.508,0.232833 0.3429,0 0.503766,-0.232833 0.160867,-0.237066 0.160867,-0.639233 0,-0.402166 -0.160867,-0.630766 -0.160866,-0.2286 -0.508,-0.2286 -0.347133,0 -0.503766,0.2286 -0.156633,0.2286 -0.156633,0.630766 z m 3.213095,1.181099 q -0.304799,0 -0.537633,-0.122766 -0.232833,-0.122767 -0.368299,-0.381 -0.131234,-0.258233 -0.131234,-0.660399 0,-0.4191 0.135467,-0.681566 0.1397,-0.262467 0.381,-0.385233 0.2413,-0.122767 0.546099,-0.122767 0.169333,0 0.3302,0.0381 0.1651,0.03387 0.2667,0.08467 l -0.1143,0.309033 q -0.1016,-0.0381 -0.237067,-0.07197 -0.135466,-0.03387 -0.253999,-0.03387 -0.668866,0 -0.668866,0.859366 0,0.410633 0.160866,0.630766 0.1651,0.2159 0.486833,0.2159 0.182033,0 0.325966,-0.0381 0.143934,-0.0381 0.262467,-0.09313 v 0.3302 q -0.1143,0.05927 -0.254,0.0889 -0.135467,0.03387 -0.3302,0.03387 z m 1.981197,-2.349498 q 0.414866,0 0.613832,0.182033 0.198967,0.182034 0.198967,0.579967 v 1.545165 h -0.270933 l -0.07197,-0.321733 h -0.01693 q -0.148167,0.186266 -0.313267,0.275166 -0.165099,0.0889 -0.448732,0.0889 -0.309034,0 -0.512233,-0.160866 -0.2032,-0.1651 -0.2032,-0.512233 0,-0.338666 0.2667,-0.5207 0.266699,-0.186266 0.821266,-0.203199 l 0.385233,-0.0127 v -0.135467 q 0,-0.283633 -0.122767,-0.3937 -0.122767,-0.110066 -0.347133,-0.110066 -0.1778,0 -0.338666,0.05503 -0.160867,0.0508 -0.300567,0.118533 l -0.1143,-0.2794 q 0.148167,-0.08043 0.351367,-0.135466 0.203199,-0.05927 0.423333,-0.05927 z m 0.444499,1.198033 -0.334433,0.0127 q -0.423333,0.01693 -0.588433,0.135466 -0.160866,0.118533 -0.160866,0.334433 0,0.1905 0.1143,0.2794 0.118533,0.0889 0.300566,0.0889 0.283633,0 0.474133,-0.156633 0.194733,-0.160867 0.194733,-0.491067 z m 1.443569,1.109132 h -0.372533 v -3.217331 h 0.372533 z m 1.092197,0 h -0.372533 v -3.217331 h 0.372533 z m 0.364064,-2.269065 h 0.397933 l 0.491066,1.291166 q 0.0635,0.173566 0.1143,0.325966 0.0508,0.1524 0.0762,0.2921 h 0.01693 q 0.0254,-0.105833 0.08043,-0.275166 0.05503,-0.173567 0.1143,-0.347133 l 0.461433,-1.286933 h 0.402166 l -0.977899,2.582331 q -0.122766,0.321734 -0.309033,0.512233 -0.186266,0.1905 -0.516466,0.1905 -0.1016,0 -0.1778,-0.0127 -0.0762,-0.0085 -0.131233,-0.02117 v -0.296334 q 0.04657,0.0085 0.110067,0.01693 0.06773,0.0085 0.139699,0.0085 0.194734,0 0.313267,-0.110066 0.118533,-0.110067 0.1905,-0.2921 l 0.118533,-0.300566 z"
         id="text10"
         aria-label="Locally" />
    </g>
    <path
       style="fill:none;fill-opacity:1;stroke:#000000;stroke-width:0.352777;stroke-dasharray:none;stroke-dashoffset:0;stroke-opacity:1;marker-end:url(#ArrowTriangleStylized);paint-order:stroke fill markers"
       d="M 43.306025,54.740217 H 70.388052"
       id="path11" />
    <g
       id="g29"
       transform="translate(0.82407859,0.05933431)">
      <rect
         style="fill:#000000;fill-opacity:1;stroke:none;stroke-width:0.352777;stroke-dasharray:none;stroke-dashoffset:0;stroke-opacity:1;paint-order:stroke fill markers"
         id="rect13"
         width="15.543165"
         height="5.5765557"
         x="48.966473"
         y="51.892605"
         rx="0"
         ry="0" />
      <path
         style="font-weight:500;font-size:3.52778px;font-family:'CMU Typewriter Text';-inkscape-font-specification:'CMU Typewriter Text Medium';fill:#ffffff;stroke-width:0.529167;paint-order:stroke fill markers"
         d="m 53.576508,54.463889 q 0,0.638528 -0.34925,0.963084 -0.345723,0.321028 -0.966612,0.321028 h -0.702028 v -2.518835 h 0.776111 q 0.377473,0 0.656167,0.141111 0.282223,0.141112 0.433917,0.416278 0.151695,0.275167 0.151695,0.677334 z m -0.335139,0.01058 q 0,-0.504472 -0.250473,-0.737306 -0.246944,-0.236361 -0.702028,-0.236361 h -0.41275 v 1.975557 h 0.342195 q 1.023056,0 1.023056,-1.00189 z m 2.494139,0.324556 q 0,0.469195 -0.239889,0.726723 -0.236362,0.257528 -0.642056,0.257528 -0.250473,0 -0.448028,-0.112889 -0.194028,-0.116417 -0.306917,-0.335139 -0.112889,-0.22225 -0.112889,-0.536223 0,-0.469194 0.232833,-0.723195 0.236361,-0.254 0.645584,-0.254 0.254,0 0.451556,0.116417 0.197556,0.112889 0.306917,0.331611 0.112889,0.215195 0.112889,0.529167 z m -1.428751,0 q 0,0.335139 0.130528,0.532695 0.134055,0.194028 0.423333,0.194028 0.28575,0 0.419806,-0.194028 0.134056,-0.197556 0.134056,-0.532695 0,-0.335139 -0.134056,-0.525639 -0.134056,-0.1905 -0.423334,-0.1905 -0.289278,0 -0.419805,0.1905 -0.130528,0.1905 -0.130528,0.525639 z m 2.677583,0.984251 q -0.254,0 -0.448028,-0.102306 -0.194028,-0.102305 -0.306917,-0.3175 -0.109361,-0.215195 -0.109361,-0.550334 0,-0.34925 0.112889,-0.567972 0.116417,-0.218723 0.3175,-0.321028 0.201084,-0.102306 0.455084,-0.102306 0.141111,0 0.275167,0.03175 0.137583,0.02822 0.22225,0.07056 l -0.09525,0.257528 q -0.08467,-0.03175 -0.197556,-0.05997 -0.112889,-0.02822 -0.211667,-0.02822 -0.557389,0 -0.557389,0.71614 0,0.342194 0.134056,0.525639 0.137583,0.179917 0.405695,0.179917 0.151694,0 0.271639,-0.03175 0.119944,-0.03175 0.218722,-0.07761 v 0.275167 q -0.09525,0.04939 -0.211667,0.07408 -0.112889,0.02822 -0.275167,0.02822 z m 1.241777,-2.716391 v 1.400529 q 0,0.05644 -0.0071,0.148167 -0.0035,0.09172 -0.0071,0.15875 h 0.01411 q 0.02117,-0.02822 0.0635,-0.08114 0.04233,-0.05292 0.08467,-0.105834 0.04586,-0.05644 0.07761,-0.09172 l 0.60325,-0.638528 h 0.363362 l -0.765528,0.807862 0.818445,1.083028 h -0.373945 l -0.656167,-0.881945 -0.215195,0.186972 v 0.694973 H 57.9192 v -2.681113 z m 2.30717,0.754945 q 0.239889,0 0.416278,0.105834 0.176389,0.105833 0.268111,0.299861 0.09525,0.1905 0.09525,0.448028 v 0.186972 h -1.294695 q 0.0071,0.321028 0.162278,0.490362 0.15875,0.165805 0.440972,0.165805 0.179917,0 0.3175,-0.03175 0.141111,-0.03528 0.289278,-0.09878 v 0.271639 q -0.144639,0.0635 -0.28575,0.09172 -0.141111,0.03175 -0.335139,0.03175 -0.271639,0 -0.47625,-0.109361 -0.204612,-0.109361 -0.321028,-0.324556 -0.112889,-0.215195 -0.112889,-0.532695 0,-0.310444 0.102305,-0.532695 0.105834,-0.22225 0.292806,-0.342194 0.1905,-0.119945 0.440973,-0.119945 z m -0.0035,0.254 q -0.22225,0 -0.352778,0.144639 -0.127,0.141112 -0.151695,0.395112 h 0.963084 q -0.0035,-0.239889 -0.112889,-0.388056 -0.109361,-0.151695 -0.345722,-0.151695 z m 2.144887,-0.254 q 0.05292,0 0.112889,0.0071 0.05997,0.0035 0.109361,0.01411 l -0.0388,0.28575 q -0.04586,-0.01058 -0.102306,-0.01764 -0.05644,-0.0071 -0.102306,-0.0071 -0.144639,0 -0.271639,0.08114 -0.127,0.07761 -0.204611,0.22225 -0.07408,0.141111 -0.07408,0.331611 v 1.008945 h -0.310445 v -1.89089 h 0.254 l 0.03528,0.345722 h 0.01411 q 0.0882,-0.155222 0.232834,-0.268111 0.148166,-0.112889 0.345722,-0.112889 z"
         id="text12"
         aria-label="Docker" />
    </g>
    <g
       id="g14"
       transform="translate(-24.162712,-62.745206)">
      <rect
         style="fill:#000000;fill-opacity:1;stroke:none;stroke-width:0.352777;stroke-dasharray:none;stroke-dashoffset:0;stroke-opacity:1;paint-order:stroke fill markers"
         id="rect14"
         width="15.543165"
         height="5.5765557"
         x="73.548676"
         y="96.474716"
         rx="0"
         ry="0" />
      <path
         style="font-weight:500;font-size:3.52778px;font-family:'CMU Typewriter Text';-inkscape-font-specification:'CMU Typewriter Text Medium';fill:#ffffff;stroke-width:0.529167;paint-order:stroke fill markers"
         d="m 79.400645,99.28424 q 0,0.335139 -0.243417,0.522111 -0.243416,0.186973 -0.656167,0.186973 -0.211666,0 -0.391583,-0.03175 -0.179917,-0.03175 -0.299862,-0.08819 V 99.56999 q 0.127001,0.05644 0.313973,0.102306 0.1905,0.04586 0.391584,0.04586 0.278694,0 0.423333,-0.109361 0.144639,-0.109361 0.144639,-0.296334 0,-0.123472 -0.05292,-0.208139 -0.05292,-0.08467 -0.183444,-0.155222 -0.130528,-0.07056 -0.356306,-0.155222 -0.324556,-0.116417 -0.486834,-0.285751 -0.162277,-0.169333 -0.162277,-0.462139 0,-0.197556 0.102305,-0.342194 0.102306,-0.144639 0.282223,-0.222251 0.179916,-0.07761 0.419805,-0.07761 0.204612,0 0.377473,0.03881 0.172861,0.0388 0.3175,0.102305 l -0.09878,0.271639 q -0.130528,-0.05644 -0.28575,-0.09525 -0.155222,-0.03881 -0.3175,-0.03881 -0.236361,0 -0.356306,0.102305 -0.119945,0.09878 -0.119945,0.264584 0,0.127 0.05292,0.211667 0.05292,0.08467 0.172861,0.155222 0.119945,0.06703 0.324556,0.141111 0.22225,0.08114 0.373945,0.176389 0.155222,0.09172 0.232833,0.22225 0.08114,0.130528 0.08114,0.328084 z m 0.169333,-1.217084 h 0.331611 l 0.409223,1.075973 q 0.05292,0.144639 0.09525,0.271639 0.04233,0.127 0.0635,0.243417 h 0.01411 q 0.02117,-0.08819 0.06703,-0.229306 0.04586,-0.144639 0.09525,-0.289278 l 0.384528,-1.072445 h 0.335139 l -0.814917,2.151944 q -0.102306,0.26811 -0.257528,0.42686 -0.155222,0.15875 -0.430389,0.15875 -0.08467,0 -0.148167,-0.0106 -0.0635,-0.007 -0.109361,-0.0176 v -0.24694 q 0.0388,0.007 0.09172,0.0141 0.05644,0.007 0.116417,0.007 0.162278,0 0.261056,-0.0917 0.09878,-0.0917 0.15875,-0.24342 l 0.09878,-0.250468 z m 3.005669,-0.03528 q 0.338667,0 0.511528,0.165806 0.172862,0.165805 0.172862,0.529167 v 1.231195 H 82.95312 v -1.210029 q 0,-0.455083 -0.423334,-0.455083 -0.313972,0 -0.433917,0.176389 -0.119944,0.176389 -0.119944,0.508 v 0.980723 H 81.66548 v -1.89089 h 0.250472 l 0.04586,0.257528 h 0.01764 q 0.09172,-0.148167 0.254001,-0.218723 0.162277,-0.07408 0.342194,-0.07408 z m 2.028474,1.961446 q -0.254,0 -0.448028,-0.102306 -0.194028,-0.102305 -0.306917,-0.3175 -0.109361,-0.215195 -0.109361,-0.550334 0,-0.34925 0.112889,-0.567972 0.116416,-0.218723 0.3175,-0.321028 0.201083,-0.102306 0.455084,-0.102306 0.141111,0 0.275166,0.03175 0.137584,0.02822 0.222251,0.07056 l -0.09525,0.257528 q -0.08467,-0.03175 -0.197555,-0.05997 -0.112889,-0.02822 -0.211667,-0.02822 -0.557389,0 -0.557389,0.716139 0,0.342195 0.134055,0.52564 0.137584,0.179916 0.405695,0.179916 0.151695,0 0.271639,-0.03175 0.119945,-0.03175 0.218723,-0.07761 v 0.275167 q -0.09525,0.04939 -0.211667,0.07408 -0.112889,0.02822 -0.275167,0.02822 z"
         id="text14"
         aria-label="Sync" />
    </g>
    <g
       id="g16"
       transform="translate(-24.833898,-36.907215)"
       sodipodi:insensitive="true">
      <rect
         style="fill:#000000;fill-opacity:1;stroke:none;stroke-width:0.352777;stroke-dasharray:none;stroke-dashoffset:0;stroke-opacity:1;paint-order:stroke fill markers"
         id="rect16"
         width="15.543165"
         height="5.5765557"
         x="74.425987"
         y="79.74794"
         rx="0"
         ry="0" />
      <path
         style="font-weight:500;font-size:3.52778px;font-family:'CMU Typewriter Text';-inkscape-font-specification:'CMU Typewriter Text Medium';text-align:center;text-anchor:middle;white-space:pre;inline-size:12.9661;fill:#ffffff;stroke-width:0.529167;paint-order:stroke fill markers"
         d="m 129.09446,107.53401 q 0.49388,0 0.71966,0.19402 0.22578,0.19403 0.22578,0.54681 0,0.20814 -0.0952,0.39158 -0.0917,0.17992 -0.31397,0.29281 -0.21872,0.11289 -0.5962,0.11289 h -0.28928 v 0.98072 h -0.3175 v -2.51883 z m -0.0282,0.27164 h -0.32103 v 0.99483 h 0.25401 q 0.35983,0 0.53622,-0.11642 0.17639,-0.11641 0.17639,-0.39511 0,-0.24342 -0.15875,-0.36336 -0.15523,-0.11994 -0.48684,-0.11994 z m 3.03389,0.3563 v 1.89089 h -0.254 l -0.0459,-0.25047 h -0.0141 q -0.0917,0.14817 -0.254,0.21872 -0.16228,0.067 -0.34572,0.067 -0.3422,0 -0.51506,-0.16228 -0.17286,-0.1658 -0.17286,-0.52564 v -1.23825 h 0.31397 v 1.21709 q 0,0.45155 0.41981,0.45155 0.31397,0 0.43392,-0.17639 0.12347,-0.17639 0.12347,-0.508 v -0.98425 z m 1.83092,1.36878 q 0,0.27517 -0.20461,0.41628 -0.20461,0.14111 -0.55034,0.14111 -0.19755,0 -0.34219,-0.0318 -0.14111,-0.0318 -0.25047,-0.0882 v -0.28222 q 0.11289,0.0564 0.27164,0.10584 0.16227,0.0459 0.32808,0.0459 0.23636,0 0.3422,-0.0741 0.10583,-0.0776 0.10583,-0.20461 0,-0.0705 -0.0388,-0.127 -0.0388,-0.0564 -0.14111,-0.11289 -0.0988,-0.0564 -0.28575,-0.127 -0.18344,-0.0705 -0.31397,-0.14111 -0.13053,-0.0705 -0.20108,-0.16933 -0.0706,-0.0988 -0.0706,-0.254 0,-0.23989 0.19403,-0.37042 0.19755,-0.13053 0.51505,-0.13053 0.17286,0 0.32103,0.0353 0.1517,0.0353 0.28222,0.0917 l -0.10583,0.24695 q -0.11994,-0.0494 -0.25047,-0.0847 -0.13053,-0.0353 -0.26811,-0.0353 -0.1905,0 -0.29281,0.0635 -0.0988,0.06 -0.0988,0.16581 0,0.0811 0.0459,0.13405 0.0459,0.0529 0.1517,0.10584 0.10936,0.0529 0.28928,0.11994 0.17991,0.067 0.30691,0.13759 0.127,0.0705 0.19403,0.17286 0.067,0.0988 0.067,0.25047 z m 0.76906,-2.159 v 0.78669 q 0,0.14111 -0.0176,0.26459 h 0.0212 q 0.0917,-0.14464 0.24695,-0.21873 0.15875,-0.0741 0.34219,-0.0741 0.3422,0 0.51506,0.16581 0.17639,0.16227 0.17639,0.52564 v 1.23119 h -0.30692 v -1.21003 q 0,-0.45508 -0.42333,-0.45508 -0.3175,0 -0.43745,0.17992 -0.11641,0.17638 -0.11641,0.508 v 0.97719 h -0.31045 v -2.68111 z"
         id="text16"
         transform="translate(-50.003422,-26.449504)"
         aria-label="Push" />
    </g>
    <g
       id="g18"
       transform="translate(39.477258,-48.154329)">
      <g
         id="g19"
         transform="translate(-27.183051)">
        <path
           style="font-weight:500;font-size:4.23333px;font-family:'CMU Sans Serif';-inkscape-font-specification:'CMU Sans Serif Medium';stroke-width:0.529167;paint-order:stroke fill markers"
           d="m 65.964329,84.558232 h 1.045632 v 1.481666 q -0.245533,0.08043 -0.495299,0.118533 -0.249767,0.0381 -0.567267,0.0381 -0.469899,0 -0.791632,-0.186267 -0.321733,-0.190499 -0.491066,-0.537632 -0.1651,-0.351367 -0.1651,-0.829733 0,-0.4699 0.182033,-0.817033 0.186266,-0.351366 0.537633,-0.541866 0.351366,-0.194733 0.846666,-0.194733 0.253999,0 0.478366,0.04657 0.2286,0.04657 0.423333,0.131233 l -0.143933,0.3302 q -0.160867,-0.06773 -0.364067,-0.118534 -0.198966,-0.05503 -0.414866,-0.05503 -0.541866,0 -0.846666,0.3302 -0.300566,0.325966 -0.300566,0.888999 0,0.359833 0.1143,0.639233 0.118533,0.275166 0.368299,0.431799 0.249767,0.1524 0.656166,0.1524 0.198967,0 0.338667,-0.02117 0.1397,-0.02117 0.254,-0.0508 v -0.897466 h -0.664633 z m 1.909234,-1.523998 q 0.08467,0 0.148167,0.05927 0.06773,0.05503 0.06773,0.1778 0,0.122767 -0.06773,0.182033 -0.0635,0.05503 -0.148167,0.05503 -0.09313,0 -0.156633,-0.05503 -0.0635,-0.05927 -0.0635,-0.182033 0,-0.122766 0.0635,-0.1778 0.0635,-0.05927 0.156633,-0.05927 z m 0.182033,0.850899 v 2.269065 h -0.372533 v -2.269065 z m 1.47743,2.006598 q 0.08467,0 0.173566,-0.0127 0.0889,-0.0127 0.143934,-0.03387 v 0.283633 q -0.05927,0.02963 -0.169334,0.04657 -0.110066,0.02117 -0.211666,0.02117 -0.1778,0 -0.3302,-0.05927 -0.148166,-0.0635 -0.2413,-0.215899 -0.09313,-0.1524 -0.09313,-0.427567 V 84.172999 H 68.48316 V 83.9952 l 0.325966,-0.148167 0.148167,-0.4826 h 0.220133 v 0.5207 h 0.656166 v 0.287866 h -0.656166 v 1.312333 q 0,0.207433 0.09737,0.309033 0.1016,0.09737 0.258233,0.09737 z m 3.132664,0.262467 h -0.380999 v -1.409699 h -1.549399 v 1.409699 h -0.381 V 83.1316 h 0.381 v 1.278466 h 1.549399 V 83.1316 h 0.380999 z m 2.671228,-2.269065 v 2.269065 h -0.3048 l -0.05503,-0.300567 h -0.01693 q -0.110066,0.1778 -0.304799,0.262467 -0.194733,0.08043 -0.414867,0.08043 -0.410633,0 -0.618066,-0.194733 -0.207433,-0.198967 -0.207433,-0.630766 v -1.485899 h 0.376766 v 1.460499 q 0,0.541866 0.503767,0.541866 0.376766,0 0.520699,-0.211667 0.148167,-0.211666 0.148167,-0.609599 v -1.181099 z m 1.092199,-0.948266 v 0.783166 q 0,0.143933 -0.0085,0.270933 -0.0042,0.122767 -0.0127,0.194733 h 0.02117 q 0.09737,-0.143933 0.266699,-0.241299 0.169334,-0.09737 0.436033,-0.09737 0.423333,0 0.677333,0.296333 0.258233,0.2921 0.258233,0.876299 0,0.5842 -0.258233,0.880533 -0.258233,0.296333 -0.677333,0.296333 -0.266699,0 -0.436033,-0.09737 -0.169333,-0.09737 -0.266699,-0.232833 h -0.02963 l -0.0762,0.287867 h -0.266699 v -3.217331 z m 0.639232,1.219199 q -0.364066,0 -0.503766,0.207433 -0.135466,0.207433 -0.135466,0.643466 v 0.01693 q 0,0.419099 0.135466,0.643466 0.1397,0.220133 0.512233,0.220133 0.3048,0 0.452966,-0.224367 0.1524,-0.224366 0.1524,-0.647699 0,-0.859366 -0.613833,-0.859366 z"
           id="text17"
           aria-label="GitHub" />
        <rect
           style="fill:none;fill-opacity:1;stroke:#000000;stroke-width:0.529167;stroke-dasharray:none;stroke-opacity:1;paint-order:stroke fill markers"
           id="rect17"
           width="22.277084"
           height="9.792675"
           x="59.530327"
           y="79.77578"
           ry="0.94920099"
           rx="0.94920093" />
      </g>
    </g>
    <path
       style="fill:none;fill-opacity:1;stroke:#000000;stroke-width:0.352777;stroke-dasharray:none;stroke-dashoffset:0;stroke-opacity:1;marker-end:url(#ArrowTriangleStylized);paint-order:stroke fill markers"
       d="M 94.088277,36.517788 H 121.1703"
       id="path25" />
    <path
       style="font-weight:bold;font-size:4.23333px;font-family:'CMU Sans Serif';-inkscape-font-specification:'CMU Sans Serif Bold';stroke-width:0.529167;paint-order:stroke fill markers"
       d="m 122.58695,22.308892 q 0.5842,0 0.8509,0.254 0.27093,0.249766 0.27093,0.690033 0,0.266699 -0.11007,0.495299 -0.11006,0.2286 -0.36829,0.3683 -0.254,0.1397 -0.69427,0.1397 h -0.27517 v 1.075266 h -0.63923 v -3.022598 z m -0.0339,0.524933 h -0.2921 v 0.897466 h 0.21167 q 0.27093,0 0.42757,-0.105833 0.16086,-0.110067 0.16086,-0.351367 0,-0.440266 -0.508,-0.440266 z m 3.7973,0.186267 v 2.311398 h -0.4826 l -0.0847,-0.296334 h -0.0339 q -0.11007,0.1778 -0.3048,0.258234 -0.1905,0.08043 -0.4064,0.08043 -0.37253,0 -0.5969,-0.198967 -0.22437,-0.203199 -0.22437,-0.647699 v -1.507065 h 0.63077 v 1.350432 q 0,0.249766 0.0889,0.376766 0.0889,0.122767 0.28363,0.122767 0.28787,0 0.3937,-0.194734 0.10583,-0.198966 0.10583,-0.567266 v -1.087965 z m 1.29116,-0.905933 v 0.749299 q 0,0.131234 -0.008,0.258233 -0.008,0.127 -0.0169,0.198967 h 0.0254 q 0.0931,-0.143933 0.24977,-0.2413 0.15663,-0.1016 0.4064,-0.1016 0.38947,0 0.63077,0.3048 0.2413,0.300566 0.2413,0.888999 0,0.592666 -0.24554,0.897466 -0.24553,0.3048 -0.64346,0.3048 -0.254,0 -0.40217,-0.0889 -0.14393,-0.09313 -0.23707,-0.207433 h -0.0423 l -0.10583,0.254 h -0.4826 v -3.217331 z m 0.45297,1.367365 q -0.24553,0 -0.34713,0.156634 -0.1016,0.1524 -0.10584,0.461433 v 0.06773 q 0,0.334433 0.0974,0.516466 0.1016,0.1778 0.36407,0.1778 0.19473,0 0.30903,-0.1778 0.1143,-0.182033 0.1143,-0.520699 0,-0.338667 -0.11853,-0.508 -0.1143,-0.173567 -0.31327,-0.173567 z m 2.22673,1.849966 h -0.63077 v -3.217331 h 0.63077 z m 0.9779,-3.217331 q 0.1397,0 0.2413,0.06773 0.1016,0.0635 0.1016,0.2413 0,0.173567 -0.1016,0.2413 -0.1016,0.06773 -0.2413,0.06773 -0.14393,0 -0.24553,-0.06773 -0.0974,-0.06773 -0.0974,-0.2413 0,-0.1778 0.0974,-0.2413 0.1016,-0.06773 0.24553,-0.06773 z m 0.31327,0.905933 v 2.311398 h -0.63077 v -2.311398 z m 2.2733,1.625598 q 0,0.351367 -0.24977,0.541866 -0.24553,0.186267 -0.7366,0.186267 -0.2413,0 -0.41487,-0.03387 -0.17356,-0.02963 -0.34713,-0.1016 v -0.520699 q 0.18627,0.08467 0.40217,0.1397 0.2159,0.05503 0.381,0.05503 0.18203,0 0.26246,-0.05503 0.0804,-0.05503 0.0804,-0.143934 0,-0.05927 -0.0339,-0.105833 -0.0296,-0.04657 -0.13547,-0.105833 -0.10583,-0.05927 -0.3302,-0.1524 -0.22013,-0.09313 -0.35983,-0.182033 -0.13547,-0.09313 -0.2032,-0.220133 -0.0677,-0.131233 -0.0677,-0.325967 0,-0.321733 0.24976,-0.482599 0.24977,-0.160867 0.66464,-0.160867 0.2159,0 0.41063,0.04233 0.19473,0.04233 0.40217,0.139699 l -0.1905,0.452967 q -0.16934,-0.07197 -0.32174,-0.118534 -0.1524,-0.0508 -0.30903,-0.0508 -0.2794,0 -0.2794,0.1524 0,0.05503 0.0339,0.1016 0.0381,0.04233 0.1397,0.09313 0.10583,0.0508 0.30903,0.135466 0.19897,0.08043 0.3429,0.169333 0.14393,0.08467 0.22013,0.2159 0.0804,0.131233 0.0804,0.334433 z m 1.12183,-2.531531 v 0.656166 q 0,0.173567 -0.0127,0.3302 -0.008,0.1524 -0.0169,0.2159 h 0.0339 q 0.11007,-0.1778 0.28363,-0.258234 0.17357,-0.08043 0.38524,-0.08043 0.37253,0 0.60113,0.2032 0.2286,0.198967 0.2286,0.643466 v 1.507066 h -0.63077 V 23.98106 q 0,-0.499533 -0.37253,-0.499533 -0.28363,0 -0.3937,0.198967 -0.10583,0.194733 -0.10583,0.563033 v 1.087966 h -0.63077 v -3.217331 z m 5.77849,3.217331 h -0.63923 v -1.303866 h -1.19803 v 1.303866 h -0.63924 v -3.022598 h 0.63924 v 1.185332 h 1.19803 v -1.185332 h 0.63923 z m 1.92616,0 h -0.63923 v -2.489198 h -0.82123 v -0.5334 h 2.28176 v 0.5334 h -0.82127 z m 2.5654,0 -0.72813,-2.370665 h -0.0169 q 0.004,0.08467 0.0127,0.254 0.008,0.169333 0.0169,0.364066 0.008,0.194733 0.008,0.347133 v 1.405466 h -0.5715 v -3.022598 h 0.87206 l 0.71544,2.311398 h 0.0127 l 0.75776,-2.311398 h 0.87207 v 3.022598 h -0.5969 v -1.430866 q 0,-0.143933 0.004,-0.3302 0.008,-0.186266 0.0127,-0.351366 0.008,-0.169333 0.0127,-0.254 h -0.0169 l -0.77893,2.366432 z m 2.71357,0 v -3.022598 h 0.63923 v 2.493431 h 1.22767 v 0.529167 z"
       id="text7"
       aria-label="Publish HTML" />
    <g
       id="g27"
       transform="translate(-0.12882156)">
      <rect
         style="fill:none;fill-opacity:1;stroke:#000000;stroke-width:0.529167;stroke-dasharray:none;stroke-opacity:1;paint-order:stroke fill markers"
         id="rect7"
         width="26.472"
         height="12.309625"
         x="122.78965"
         y="48.585403"
         ry="0.94920099"
         rx="0.94920093" />
      <g
         id="text8"
         style="font-weight:bold;font-size:4.23333px;font-family:'CMU Sans Serif';-inkscape-font-specification:'CMU Sans Serif Bold';text-align:center;text-anchor:middle;fill:none;stroke:#000000;stroke-width:0.529167;paint-order:stroke fill markers"
         aria-label="SCORM&#10;(Learn)">
        <path
           style="font-weight:500;-inkscape-font-specification:'CMU Sans Serif Medium';fill:#000000;stroke:none"
           d="m 130.92269,52.271806 q 0,0.402166 -0.2921,0.626533 -0.2921,0.224366 -0.7874,0.224366 -0.254,0 -0.4699,-0.0381 -0.2159,-0.0381 -0.35983,-0.105833 v -0.364066 q 0.1524,0.06773 0.37677,0.122766 0.2286,0.05503 0.4699,0.05503 0.33443,0 0.50799,-0.131233 0.17357,-0.131233 0.17357,-0.355599 0,-0.148167 -0.0635,-0.249767 -0.0635,-0.1016 -0.22013,-0.186266 -0.15663,-0.08467 -0.42757,-0.186267 -0.38946,-0.1397 -0.5842,-0.3429 -0.19473,-0.2032 -0.19473,-0.554566 0,-0.237066 0.12277,-0.410633 0.12276,-0.173566 0.33866,-0.2667 0.2159,-0.09313 0.50377,-0.09313 0.24553,0 0.45296,0.04657 0.20744,0.04657 0.381,0.122766 l -0.11853,0.325967 q -0.15663,-0.06773 -0.3429,-0.1143 -0.18626,-0.04657 -0.381,-0.04657 -0.28363,0 -0.42756,0.122767 -0.14394,0.118533 -0.14394,0.317499 0,0.1524 0.0635,0.254 0.0635,0.1016 0.20744,0.186267 0.14393,0.08043 0.38946,0.169333 0.2667,0.09737 0.44873,0.211666 0.18627,0.110067 0.2794,0.2667 0.0974,0.156633 0.0974,0.3937 z m 1.905,-1.921932 q -0.48683,0 -0.76623,0.325967 -0.2794,0.325966 -0.2794,0.893232 0,0.563033 0.25823,0.893233 0.26247,0.325966 0.78317,0.325966 0.19473,0 0.37253,-0.03387 0.1778,-0.03387 0.35136,-0.08467 v 0.3302 q -0.16933,0.0635 -0.35136,0.09313 -0.1778,0.02963 -0.42757,0.02963 -0.46143,0 -0.77046,-0.1905 -0.30904,-0.1905 -0.46567,-0.541866 -0.1524,-0.351366 -0.1524,-0.825499 0,-0.4572 0.1651,-0.804333 0.16933,-0.351366 0.4953,-0.546099 0.32597,-0.198967 0.79163,-0.198967 0.47837,0 0.83397,0.1778 l -0.1524,0.321733 q -0.1397,-0.0635 -0.31327,-0.1143 -0.16933,-0.0508 -0.37253,-0.0508 z m 3.93276,1.214966 q 0,0.469899 -0.16087,0.821266 -0.15663,0.347133 -0.4699,0.541866 -0.30903,0.194733 -0.762,0.194733 -0.46989,0 -0.78316,-0.194733 -0.30903,-0.194733 -0.46143,-0.5461 -0.1524,-0.351366 -0.1524,-0.821266 0,-0.461432 0.1524,-0.808566 0.1524,-0.351366 0.46143,-0.546099 0.31327,-0.194733 0.7874,-0.194733 0.45296,0 0.762,0.194733 0.30903,0.1905 0.46566,0.541866 0.16087,0.347133 0.16087,0.817033 z m -2.3876,0 q 0,0.571499 0.2413,0.901699 0.2413,0.325966 0.75353,0.325966 0.51224,0 0.7493,-0.325966 0.2413,-0.3302 0.2413,-0.901699 0,-0.5715 -0.23706,-0.893233 -0.23707,-0.325966 -0.7493,-0.325966 -0.51647,0 -0.75777,0.325966 -0.2413,0.321733 -0.2413,0.893233 z m 3.89043,-1.507066 q 0.56304,0 0.82973,0.2159 0.27094,0.211667 0.27094,0.643466 0,0.2413 -0.0889,0.402167 -0.0889,0.160866 -0.2286,0.258233 -0.13547,0.09737 -0.28787,0.148166 l 0.82973,1.354666 h -0.4445 l -0.73236,-1.248832 h -0.60113 v 1.248832 h -0.381 v -3.022598 z m -0.0212,0.3302 h -0.4318 v 1.121833 h 0.45296 q 0.3683,0 0.53764,-0.143934 0.16933,-0.148166 0.16933,-0.431799 0,-0.296333 -0.1778,-0.4191 -0.1778,-0.127 -0.55033,-0.127 z m 3.15383,2.692398 -0.99484,-2.650065 h -0.0169 q 0.0127,0.131234 0.0212,0.3556 0.008,0.220133 0.008,0.461433 v 1.833032 h -0.35136 v -3.022598 h 0.56303 l 0.93133,2.476498 h 0.0169 l 0.94826,-2.476498 h 0.5588 v 3.022598 h -0.37677 V 51.22194 q 0,-0.220133 0.008,-0.436033 0.0127,-0.2159 0.0212,-0.351366 h -0.0169 l -1.00753,2.645831 z"
           id="path10" />
        <path
           style="font-weight:500;-inkscape-font-specification:'CMU Sans Serif Medium';fill:#000000;stroke:none"
           d="m 129.37118,57.212102 q 0,-0.516467 0.14816,-0.994833 0.1524,-0.482599 0.47414,-0.867832 h 0.35136 q -0.29633,0.397933 -0.44873,0.876299 -0.14817,0.478366 -0.14817,0.982132 0,0.491067 0.14817,0.9652 0.1524,0.469899 0.4445,0.867832 h -0.34713 q -0.32174,-0.372533 -0.47414,-0.842432 -0.14816,-0.474133 -0.14816,-0.986366 z m 1.51129,1.159932 v -3.022597 h 0.381 v 2.683931 h 1.3208 v 0.338666 z m 3.04377,-2.311398 q 0.28786,0 0.49953,0.127 0.21167,0.127 0.32173,0.359833 0.1143,0.2286 0.1143,0.537633 v 0.224366 h -1.55363 q 0.008,0.385233 0.19473,0.588433 0.1905,0.198967 0.52917,0.198967 0.2159,0 0.381,-0.0381 0.16933,-0.04233 0.34713,-0.118534 v 0.325967 q -0.17356,0.0762 -0.3429,0.110066 -0.16933,0.0381 -0.40216,0.0381 -0.32597,0 -0.5715,-0.131233 -0.24554,-0.131233 -0.38524,-0.389466 -0.13546,-0.258233 -0.13546,-0.639233 0,-0.372533 0.12276,-0.639233 0.127,-0.2667 0.35137,-0.410633 0.2286,-0.143933 0.52917,-0.143933 z m -0.004,0.3048 q -0.2667,0 -0.42333,0.173566 -0.1524,0.169333 -0.18203,0.474133 h 1.1557 q -0.004,-0.287866 -0.13547,-0.465666 -0.13123,-0.182033 -0.41487,-0.182033 z m 2.3749,-0.300567 q 0.41486,0 0.61383,0.182034 0.19897,0.182033 0.19897,0.579966 v 1.545165 h -0.27094 l -0.072,-0.321733 h -0.0169 q -0.14816,0.186267 -0.31326,0.275166 -0.1651,0.0889 -0.44874,0.0889 -0.30903,0 -0.51223,-0.160866 -0.2032,-0.1651 -0.2032,-0.512233 0,-0.338666 0.2667,-0.5207 0.2667,-0.186266 0.82127,-0.203199 l 0.38523,-0.0127 v -0.135467 q 0,-0.283633 -0.12277,-0.3937 -0.12276,-0.110066 -0.34713,-0.110066 -0.1778,0 -0.33867,0.05503 -0.16086,0.0508 -0.30056,0.118533 l -0.1143,-0.279399 q 0.14816,-0.08043 0.35136,-0.135467 0.2032,-0.05927 0.42334,-0.05927 z m 0.4445,1.198033 -0.33444,0.0127 q -0.42333,0.01693 -0.58843,0.135466 -0.16087,0.118533 -0.16087,0.334433 0,0.1905 0.1143,0.2794 0.11854,0.0889 0.30057,0.0889 0.28363,0 0.47413,-0.156633 0.19474,-0.160867 0.19474,-0.491066 z m 2.12937,-1.202266 q 0.0635,0 0.13546,0.0085 0.072,0.0042 0.13123,0.01693 l -0.0466,0.3429 q -0.055,-0.0127 -0.12277,-0.02117 -0.0677,-0.0085 -0.12276,-0.0085 -0.17357,0 -0.32597,0.09737 -0.1524,0.09313 -0.24553,0.2667 -0.0889,0.169333 -0.0889,0.397933 v 1.210732 h -0.37254 v -2.269065 h 0.3048 l 0.0423,0.414867 h 0.0169 q 0.10583,-0.186267 0.2794,-0.321733 0.1778,-0.135467 0.41487,-0.135467 z m 1.78223,0 q 0.4064,0 0.61383,0.198967 0.20743,0.198966 0.20743,0.634999 v 1.477432 h -0.3683 v -1.452032 q 0,-0.5461 -0.508,-0.5461 -0.37676,0 -0.5207,0.211667 -0.14393,0.211666 -0.14393,0.609599 v 1.176866 h -0.37253 v -2.269065 h 0.30056 l 0.055,0.309033 h 0.0212 q 0.11007,-0.177799 0.3048,-0.262466 0.19474,-0.0889 0.41064,-0.0889 z m 2.26483,1.151466 q 0,0.512233 -0.1524,0.986366 -0.14817,0.469899 -0.4699,0.842432 h -0.34713 q 0.2921,-0.397933 0.44026,-0.867832 0.1524,-0.474133 0.1524,-0.9652 0,-0.503766 -0.1524,-0.982132 -0.14816,-0.478366 -0.4445,-0.876299 h 0.35137 q 0.32173,0.385233 0.4699,0.867832 0.1524,0.478366 0.1524,0.994833 z"
           id="path13" />
      </g>
    </g>
    <g
       id="g26"
       transform="translate(-0.82880471,-32.089045)">
      <path
         style="font-weight:500;font-size:3.54518px;font-family:'CMU Sans Serif';-inkscape-font-specification:'CMU Sans Serif Medium';text-align:center;text-anchor:middle;white-space:pre;inline-size:26.4451;stroke-width:0.529167;paint-order:stroke fill markers"
         d="m 46.578561,84.817665 h 0.875659 v 1.240813 q -0.20562,0.06736 -0.414786,0.09927 -0.209165,0.03191 -0.475054,0.03191 -0.393515,0 -0.662949,-0.155987 -0.269433,-0.159534 -0.41124,-0.450238 -0.138262,-0.29425 -0.138262,-0.694856 0,-0.393515 0.152442,-0.684219 0.155988,-0.29425 0.450238,-0.453783 0.29425,-0.163079 0.709036,-0.163079 0.212711,0 0.400606,0.039 0.191439,0.039 0.354518,0.109901 l -0.120537,0.276524 q -0.134716,-0.05672 -0.304885,-0.09926 -0.166624,-0.04609 -0.347428,-0.04609 -0.453783,0 -0.709036,0.276524 -0.251708,0.272978 -0.251708,0.744487 0,0.301341 0.09572,0.535323 0.09926,0.230436 0.308431,0.361608 0.209166,0.127626 0.549503,0.127626 0.166623,0 0.283614,-0.01772 0.116991,-0.01773 0.212711,-0.04254 V 85.101279 H 46.578561 Z M 48.177439,83.5414 q 0.0709,0 0.124082,0.04963 0.05672,0.04609 0.05672,0.148898 0,0.10281 -0.05672,0.152443 -0.05318,0.04609 -0.124082,0.04609 -0.07799,0 -0.131171,-0.04609 -0.05318,-0.04963 -0.05318,-0.152443 0,-0.10281 0.05318,-0.148898 0.05318,-0.04963 0.131171,-0.04963 z m 0.152443,0.712581 v 1.900217 h -0.311976 v -1.900217 z m 1.237266,1.680416 q 0.0709,0 0.145352,-0.01064 0.07445,-0.01064 0.120536,-0.02836 v 0.237527 q -0.04963,0.02482 -0.141807,0.039 -0.09217,0.01772 -0.177259,0.01772 -0.148897,0 -0.276524,-0.04963 -0.124081,-0.05318 -0.202075,-0.180804 -0.07799,-0.127627 -0.07799,-0.358063 v -1.106097 h -0.269434 v -0.148897 l 0.272979,-0.124081 0.124081,-0.404151 h 0.18435 v 0.436057 h 0.549503 v 0.241072 h -0.549503 v 1.099006 q 0,0.173714 0.08154,0.258798 0.08508,0.08154 0.216256,0.08154 z m 2.623433,0.219801 h -0.319066 v -1.180545 h -1.297536 v 1.180545 h -0.319066 v -2.531259 h 0.319066 v 1.070644 h 1.297536 v -1.070644 h 0.319066 z m 2.237006,-1.900217 v 1.900217 h -0.255253 l -0.04609,-0.251708 h -0.01418 q -0.09217,0.148897 -0.255253,0.219801 -0.163078,0.06736 -0.347427,0.06736 -0.343883,0 -0.517597,-0.163078 -0.173713,-0.166623 -0.173713,-0.528232 v -1.244358 h 0.315521 v 1.223087 q 0,0.453783 0.421876,0.453783 0.315521,0 0.436057,-0.177259 0.124081,-0.177259 0.124081,-0.510506 v -0.989105 z m 0.914657,-0.79412 v 0.655858 q 0,0.120536 -0.0071,0.226892 -0.0035,0.10281 -0.01064,0.163078 h 0.01773 q 0.08154,-0.120536 0.223346,-0.202075 0.141807,-0.08154 0.365154,-0.08154 0.354518,0 0.567228,0.248162 0.216256,0.244618 0.216256,0.733852 0,0.489235 -0.216256,0.737398 -0.216255,0.248162 -0.567228,0.248162 -0.223347,0 -0.365154,-0.08154 -0.141807,-0.08154 -0.223346,-0.194985 h -0.02482 l -0.06381,0.241073 h -0.223346 v -2.694337 z m 0.535322,1.021012 q -0.304886,0 -0.421876,0.173714 -0.113446,0.173713 -0.113446,0.538867 v 0.01418 q 0,0.350972 0.113446,0.538867 0.11699,0.184349 0.428966,0.184349 0.255253,0 0.379335,-0.187894 0.127626,-0.187895 0.127626,-0.542413 0,-0.719671 -0.514051,-0.719671 z m 3.158756,-0.262344 q 0.350972,0 0.563683,0.244618 0.216256,0.244617 0.216256,0.737397 0,0.48569 -0.216256,0.737398 -0.212711,0.251707 -0.567229,0.251707 -0.219801,0 -0.365153,-0.08154 -0.141807,-0.08154 -0.223347,-0.194985 h -0.02127 q 0.0035,0.06027 0.01064,0.152443 0.01064,0.09217 0.01064,0.159533 v 0.77994 h -0.311975 v -2.75106 h 0.255253 l 0.04254,0.258798 h 0.01418 q 0.08508,-0.124081 0.223347,-0.209165 0.138262,-0.08508 0.368699,-0.08508 z m -0.05672,0.262344 q -0.290705,0 -0.411241,0.163078 -0.120536,0.163078 -0.124082,0.496325 v 0.06027 q 0,0.350973 0.113446,0.542413 0.116991,0.187894 0.428967,0.187894 0.170169,0 0.283614,-0.09217 0.113446,-0.09572 0.166624,-0.262344 0.05672,-0.166623 0.05672,-0.379334 0,-0.326156 -0.127627,-0.521141 -0.124081,-0.194985 -0.386424,-0.194985 z m 2.052658,-0.258798 q 0.347427,0 0.514051,0.152442 0.166623,0.152443 0.166623,0.48569 v 1.293991 H 61.48604 l -0.06027,-0.269434 h -0.01418 q -0.124081,0.155988 -0.262343,0.230437 -0.138262,0.07445 -0.375789,0.07445 -0.258799,0 -0.428967,-0.134716 -0.170169,-0.138262 -0.170169,-0.428967 0,-0.283615 0.223346,-0.436057 0.223347,-0.155988 0.687765,-0.170169 l 0.322612,-0.01063 v -0.113446 q 0,-0.237527 -0.10281,-0.329702 -0.102811,-0.09217 -0.290705,-0.09217 -0.148898,0 -0.283615,0.04609 -0.134717,0.04254 -0.251707,0.09927 l -0.09572,-0.233982 q 0.124081,-0.06736 0.29425,-0.113446 0.170168,-0.04963 0.354518,-0.04963 z m 0.372244,1.003286 -0.28007,0.01063 q -0.354518,0.01418 -0.49278,0.113446 -0.134717,0.09927 -0.134717,0.280069 0,0.159533 0.09572,0.233982 0.09926,0.07445 0.251708,0.07445 0.237527,0 0.39706,-0.131172 0.163079,-0.134717 0.163079,-0.411241 z m 1.570518,-1.006832 q 0.187894,0 0.336792,0.0709 0.152443,0.0709 0.258798,0.216256 h 0.01773 l 0.04254,-0.251708 h 0.248163 v 1.932123 q 0,0.407696 -0.209166,0.613316 -0.20562,0.205621 -0.641677,0.205621 -0.418332,0 -0.68422,-0.120536 v -0.28716 q 0.280069,0.148898 0.701946,0.148898 0.244617,0 0.382879,-0.145353 0.141807,-0.141807 0.141807,-0.389969 v -0.07445 q 0,-0.04254 0.0035,-0.120536 0.0035,-0.08154 0.0071,-0.113446 h -0.01418 q -0.19144,0.287159 -0.5885,0.287159 -0.368699,0 -0.577864,-0.258798 -0.205621,-0.258798 -0.205621,-0.723216 0,-0.453783 0.205621,-0.719672 0.209165,-0.269434 0.574319,-0.269434 z m 0.04254,0.262344 q -0.237527,0 -0.368699,0.191439 -0.131171,0.187895 -0.131171,0.538868 0,0.350973 0.127626,0.538867 0.127627,0.18435 0.379334,0.18435 0.28716,0 0.418332,-0.152443 0.131171,-0.155988 0.131171,-0.499871 v -0.07445 q 0,-0.386425 -0.134716,-0.556594 -0.134717,-0.170168 -0.421877,-0.170168 z m 2.198011,-0.262344 q 0.241072,0 0.418331,0.106356 0.177259,0.106355 0.269433,0.30134 0.09572,0.19144 0.09572,0.450238 v 0.187894 h -1.301081 q 0.0071,0.322612 0.163079,0.492781 0.159533,0.166623 0.443147,0.166623 0.180804,0 0.319066,-0.03191 0.141807,-0.03545 0.290705,-0.09926 v 0.272979 q -0.145352,0.06381 -0.28716,0.09217 -0.141807,0.03191 -0.336792,0.03191 -0.272979,0 -0.478599,-0.1099 -0.20562,-0.109901 -0.322611,-0.326157 -0.113446,-0.216256 -0.113446,-0.535322 0,-0.311976 0.10281,-0.535322 0.106355,-0.223346 0.29425,-0.343883 0.19144,-0.120536 0.443148,-0.120536 z m -0.0035,0.255253 q -0.223346,0 -0.354518,0.145353 -0.127626,0.141807 -0.152442,0.39706 H 65.6729 q -0.0035,-0.241072 -0.113446,-0.38997 -0.109901,-0.152443 -0.347428,-0.152443 z m 2.50644,1.155729 q 0,0.276524 -0.20562,0.418331 -0.205621,0.141807 -0.553048,0.141807 -0.19853,0 -0.343883,-0.03191 -0.141807,-0.03191 -0.251707,-0.08863 v -0.283614 q 0.113445,0.05672 0.272978,0.106355 0.163079,0.04609 0.329702,0.04609 0.237527,0 0.343883,-0.07445 0.106355,-0.07799 0.106355,-0.205621 0,-0.0709 -0.039,-0.127626 -0.039,-0.05672 -0.141807,-0.113446 -0.09927,-0.05672 -0.28716,-0.127626 -0.184349,-0.0709 -0.315521,-0.141807 -0.131171,-0.0709 -0.202075,-0.170169 -0.0709,-0.09927 -0.0709,-0.255253 0,-0.241072 0.194985,-0.372244 0.19853,-0.131172 0.517597,-0.131172 0.173713,0 0.322611,0.03545 0.152443,0.03545 0.283614,0.09217 l -0.106355,0.248162 q -0.120536,-0.04963 -0.251708,-0.08508 -0.131171,-0.03545 -0.269433,-0.03545 -0.19144,0 -0.29425,0.06381 -0.09927,0.06027 -0.09927,0.166623 0,0.08154 0.04609,0.134717 0.04609,0.05318 0.152443,0.106355 0.1099,0.05318 0.290704,0.120536 0.180805,0.06736 0.308431,0.138262 0.127627,0.0709 0.194985,0.173714 0.06736,0.09927 0.06736,0.251708 z m -17.174617,3.984782 q 0,-0.432512 0.124082,-0.833118 0.127626,-0.40415 0.39706,-0.726762 h 0.29425 q -0.248163,0.333247 -0.375789,0.733853 -0.124082,0.400605 -0.124082,0.822481 0,0.411241 0.124082,0.808302 0.127626,0.393515 0.372244,0.726761 h -0.290705 q -0.269434,-0.311975 -0.39706,-0.70549 -0.124082,-0.397061 -0.124082,-0.826027 z m 2.127106,-0.964289 q 0.350973,0 0.563683,0.244617 0.216256,0.244618 0.216256,0.737398 0,0.485689 -0.216256,0.737397 -0.21271,0.251708 -0.567228,0.251708 -0.219802,0 -0.365154,-0.08154 -0.141807,-0.08154 -0.223346,-0.194985 h -0.02127 q 0.0035,0.06027 0.01064,0.152442 0.01064,0.09218 0.01064,0.159534 v 0.779939 h -0.311976 v -2.75106 h 0.255253 l 0.04254,0.258799 h 0.01418 q 0.08508,-0.124082 0.223346,-0.209166 0.138262,-0.08508 0.368699,-0.08508 z m -0.05672,0.262343 q -0.290705,0 -0.411241,0.163078 -0.120536,0.163079 -0.124081,0.496325 v 0.06027 q 0,0.350972 0.113445,0.542412 0.116991,0.187895 0.428967,0.187895 0.170169,0 0.283615,-0.09217 0.113445,-0.09572 0.166623,-0.262343 0.05672,-0.166624 0.05672,-0.379335 0,-0.326156 -0.127627,-0.521141 -0.124081,-0.194985 -0.386424,-0.194985 z m 2.921228,-0.226892 v 1.900217 h -0.255253 l -0.04609,-0.251708 h -0.01418 q -0.09217,0.148898 -0.255253,0.219801 -0.163079,0.06736 -0.347428,0.06736 -0.343883,0 -0.517596,-0.163078 -0.173714,-0.166624 -0.173714,-0.528232 v -1.244359 h 0.315521 v 1.223088 q 0,0.453783 0.421876,0.453783 0.315521,0 0.436057,-0.177259 0.124082,-0.177259 0.124082,-0.510506 v -0.989106 z m 0.914656,-0.79412 v 0.655858 q 0,0.120537 -0.0071,0.226892 -0.0035,0.10281 -0.01064,0.163078 h 0.01773 q 0.08154,-0.120536 0.223346,-0.202075 0.141808,-0.08154 0.365154,-0.08154 0.354518,0 0.567229,0.248162 0.216256,0.244618 0.216256,0.733853 0,0.489235 -0.216256,0.737397 -0.216256,0.248163 -0.567229,0.248163 -0.223346,0 -0.365154,-0.08154 -0.141807,-0.08154 -0.223346,-0.194985 H 56.4253 l -0.06381,0.241072 H 56.13814 v -2.694337 z m 0.535322,1.021012 q -0.304885,0 -0.421876,0.173714 -0.113446,0.173714 -0.113446,0.538867 v 0.01418 q 0,0.350973 0.113446,0.538867 0.116991,0.18435 0.428967,0.18435 0.255253,0 0.379334,-0.187895 0.127626,-0.187894 0.127626,-0.542412 0,-0.719672 -0.514051,-0.719672 z m 1.644963,1.673325 h -0.311976 v -2.694337 h 0.311976 z m 0.762212,-2.612798 q 0.0709,0 0.124081,0.04963 0.05672,0.04609 0.05672,0.148897 0,0.102811 -0.05672,0.152443 -0.05318,0.04609 -0.124081,0.04609 -0.07799,0 -0.131172,-0.04609 -0.05318,-0.04963 -0.05318,-0.152443 0,-0.10281 0.05318,-0.148897 0.05318,-0.04963 0.131172,-0.04963 z m 0.152443,0.712581 v 1.900217 H 59.23308 v -1.900217 z m 1.364891,1.935669 q -0.255253,0 -0.450237,-0.10281 -0.194985,-0.102811 -0.308431,-0.319067 -0.109901,-0.216256 -0.109901,-0.553048 0,-0.350973 0.113446,-0.570774 0.116991,-0.219801 0.319066,-0.322611 0.202076,-0.10281 0.457328,-0.10281 0.141808,0 0.276525,0.03191 0.138262,0.02836 0.223346,0.0709 l -0.09572,0.258798 q -0.08508,-0.03191 -0.19853,-0.06027 -0.113446,-0.02836 -0.212711,-0.02836 -0.560138,0 -0.560138,0.719671 0,0.343883 0.134716,0.528232 0.138263,0.180804 0.407696,0.180804 0.152443,0 0.272979,-0.03191 0.120536,-0.03191 0.219801,-0.07799 v 0.276524 q -0.09572,0.04963 -0.212711,0.07445 -0.113445,0.02836 -0.276524,0.02836 z m 1.559878,-1.006831 q 0,0.428966 -0.127626,0.826027 -0.124082,0.393515 -0.393515,0.70549 h -0.290705 q 0.244617,-0.333246 0.368699,-0.726761 0.127626,-0.397061 0.127626,-0.808302 0,-0.421876 -0.127626,-0.822481 -0.124082,-0.400606 -0.372244,-0.733853 h 0.29425 q 0.269433,0.322612 0.393515,0.726762 0.127626,0.400606 0.127626,0.833118 z"
         id="text25"
         transform="matrix(1.0166633,0,0,0.97397437,79.730933,-16.323392)"
         aria-label="GitHub pages (public)" />
      <rect
         style="fill:none;fill-opacity:1;stroke:#000000;stroke-width:0.529167;stroke-dasharray:none;stroke-opacity:1;paint-order:stroke fill markers"
         id="rect26"
         width="26.472"
         height="12.309625"
         x="123.96423"
         y="63.163921"
         ry="0.94920099"
         rx="0.94920093"
         sodipodi:insensitive="true" />
    </g>
    <path
       style="fill:none;fill-opacity:1;stroke:#808080;stroke-width:0.352778;stroke-dasharray:1.05833, 1.05833;stroke-dashoffset:0;stroke-opacity:1;paint-order:stroke fill markers"
       d="M 108.4178,21.786215 V 63.791921"
       id="path28" />
    <g
       id="g28"
       transform="translate(3.1385542,-22.009586)">
      <rect
         style="fill:#000000;fill-opacity:1;stroke:none;stroke-width:0.352777;stroke-dasharray:none;stroke-dashoffset:0;stroke-opacity:1;paint-order:stroke fill markers"
         id="rect28"
         width="15.543165"
         height="5.5765557"
         x="97.49437"
         y="73.961525"
         rx="0"
         ry="0" />
      <path
         style="font-weight:500;font-size:3.52778px;font-family:'CMU Typewriter Text';-inkscape-font-specification:'CMU Typewriter Text Medium';fill:#ffffff;stroke-width:0.529167;paint-order:stroke fill markers"
         d="m 102.10441,76.532813 q 0,0.638528 -0.34925,0.963084 -0.34572,0.321028 -0.96661,0.321028 h -0.70203 V 75.29809 h 0.77611 q 0.37747,0 0.65617,0.141111 0.28222,0.141111 0.43391,0.416278 0.1517,0.275167 0.1517,0.677334 z m -0.33514,0.01058 q 0,-0.504472 -0.25047,-0.737306 -0.24695,-0.236361 -0.70203,-0.236361 h -0.41275 v 1.975557 h 0.34219 q 1.02306,0 1.02306,-1.00189 z m 2.49414,0.324556 q 0,0.469195 -0.23989,0.726723 -0.23636,0.257528 -0.64206,0.257528 -0.25047,0 -0.44802,-0.112889 -0.19403,-0.116417 -0.30692,-0.335139 -0.11289,-0.22225 -0.11289,-0.536223 0,-0.469195 0.23283,-0.723195 0.23636,-0.254 0.64559,-0.254 0.254,0 0.45155,0.116417 0.19756,0.112889 0.30692,0.331611 0.11289,0.215195 0.11289,0.529167 z m -1.42875,0 q 0,0.335139 0.13053,0.532695 0.13405,0.194028 0.42333,0.194028 0.28575,0 0.4198,-0.194028 0.13406,-0.197556 0.13406,-0.532695 0,-0.335139 -0.13406,-0.525639 -0.13405,-0.1905 -0.42333,-0.1905 -0.28928,0 -0.4198,0.1905 -0.13053,0.1905 -0.13053,0.525639 z m 2.67758,0.984251 q -0.254,0 -0.44803,-0.102306 -0.19402,-0.102305 -0.30691,-0.3175 -0.10937,-0.215195 -0.10937,-0.550334 0,-0.34925 0.11289,-0.567972 0.11642,-0.218723 0.3175,-0.321028 0.20109,-0.102306 0.45509,-0.102306 0.14111,0 0.27516,0.03175 0.13759,0.02822 0.22225,0.07056 l -0.0953,0.257528 q -0.0847,-0.03175 -0.19755,-0.05997 -0.11289,-0.02822 -0.21167,-0.02822 -0.55739,0 -0.55739,0.71614 0,0.342194 0.13406,0.525639 0.13758,0.179917 0.40569,0.179917 0.1517,0 0.27164,-0.03175 0.11995,-0.03175 0.21872,-0.07761 v 0.275167 q -0.0953,0.04939 -0.21166,0.07408 -0.11289,0.02822 -0.27517,0.02822 z m 1.24178,-2.716391 v 1.400529 q 0,0.05644 -0.007,0.148167 -0.004,0.09172 -0.007,0.15875 h 0.0141 q 0.0212,-0.02822 0.0635,-0.08114 0.0423,-0.05292 0.0847,-0.105834 0.0459,-0.05644 0.0776,-0.09172 l 0.60325,-0.638528 h 0.36336 l -0.76553,0.807862 0.81844,1.083028 h -0.37394 l -0.65617,-0.881945 -0.21519,0.186972 v 0.694973 h -0.30692 v -2.681113 z m 2.30717,0.754945 q 0.23989,0 0.41628,0.105834 0.17638,0.105833 0.26811,0.299861 0.0952,0.1905 0.0952,0.448028 v 0.186972 h -1.2947 q 0.007,0.321028 0.16228,0.490362 0.15875,0.165805 0.44097,0.165805 0.17992,0 0.3175,-0.03175 0.14111,-0.03528 0.28928,-0.09878 v 0.27164 q -0.14464,0.0635 -0.28575,0.09172 -0.14111,0.03175 -0.33514,0.03175 -0.27164,0 -0.47625,-0.109361 -0.20461,-0.109362 -0.32103,-0.324556 -0.11289,-0.215195 -0.11289,-0.532695 0,-0.310445 0.10231,-0.532695 0.10583,-0.22225 0.2928,-0.342194 0.1905,-0.119945 0.44098,-0.119945 z m -0.004,0.254 q -0.22225,0 -0.35278,0.144639 -0.127,0.141111 -0.15169,0.395112 h 0.96308 q -0.004,-0.239889 -0.11289,-0.388056 -0.10936,-0.151695 -0.34572,-0.151695 z m 2.14489,-0.254 q 0.0529,0 0.11289,0.0071 0.06,0.0035 0.10936,0.01411 l -0.0388,0.28575 q -0.0459,-0.01058 -0.1023,-0.01764 -0.0565,-0.0071 -0.10231,-0.0071 -0.14464,0 -0.27164,0.08114 -0.127,0.07761 -0.20461,0.222251 -0.0741,0.141111 -0.0741,0.331611 v 1.008945 h -0.31045 v -1.89089 h 0.254 l 0.0353,0.345722 h 0.0141 q 0.0882,-0.155222 0.23283,-0.268111 0.14817,-0.112889 0.34573,-0.112889 z"
         id="text28"
         aria-label="Docker" />
    </g>
    <g
       id="g30"
       transform="translate(-0.31829681,-0.0587818)">
      <rect
         style="fill:#000000;fill-opacity:1;stroke:none;stroke-width:0.352777;stroke-dasharray:none;stroke-dashoffset:0;stroke-opacity:1;paint-order:stroke fill markers"
         id="rect21"
         width="15.543165"
         height="5.5765557"
         x="100.8911"
         y="33.788292"
         rx="0"
         ry="0" />
      <path
         style="font-weight:500;font-size:3.52778px;font-family:'CMU Typewriter Text';-inkscape-font-specification:'CMU Typewriter Text Medium';fill:#ffffff;stroke-width:0.529167;paint-order:stroke fill markers"
         d="m 105.00512,37.665222 -0.30339,-0.779639 h -0.99836 l -0.29986,0.779639 h -0.32103 l 0.98425,-2.529418 h 0.28575 l 0.98073,2.529418 z m -0.39864,-1.061862 -0.28222,-0.762 q -0.0106,-0.02822 -0.0353,-0.102306 -0.0247,-0.07408 -0.0494,-0.151694 -0.0212,-0.08114 -0.0353,-0.123473 -0.0282,0.109362 -0.06,0.215195 -0.0282,0.102306 -0.0494,0.162278 l -0.28575,0.762 z m 1.78859,1.09714 q -0.254,0 -0.44803,-0.102306 -0.19403,-0.102305 -0.30692,-0.3175 -0.10936,-0.215194 -0.10936,-0.550334 0,-0.34925 0.11289,-0.567972 0.11642,-0.218722 0.3175,-0.321028 0.20108,-0.102306 0.45508,-0.102306 0.14111,0 0.27517,0.03175 0.13758,0.02822 0.22225,0.07056 l -0.0953,0.257528 q -0.0847,-0.03175 -0.19756,-0.05997 -0.11288,-0.02822 -0.21166,-0.02822 -0.55739,0 -0.55739,0.71614 0,0.342194 0.13405,0.525639 0.13759,0.179917 0.4057,0.179917 0.15169,0 0.27164,-0.03175 0.11994,-0.03175 0.21872,-0.07761 v 0.275166 q -0.0953,0.04939 -0.21167,0.07408 -0.11289,0.02822 -0.27516,0.02822 z m 1.56633,-0.254 q 0.0706,0 0.14464,-0.01058 0.0741,-0.01058 0.11994,-0.02822 v 0.236361 q -0.0494,0.0247 -0.14111,0.03881 -0.0917,0.01764 -0.17639,0.01764 -0.14816,0 -0.27516,-0.04939 -0.12348,-0.05292 -0.20109,-0.179917 -0.0776,-0.127 -0.0776,-0.356306 v -1.100667 h -0.26811 v -0.148167 l 0.27164,-0.123472 0.12347,-0.402167 h 0.18345 v 0.433917 h 0.5468 v 0.239889 h -0.5468 v 1.093612 q 0,0.172861 0.0811,0.257528 0.0847,0.08114 0.2152,0.08114 z m 0.80081,-2.381252 q 0.0705,0 0.12347,0.04939 0.0564,0.04586 0.0564,0.148167 0,0.102306 -0.0564,0.151694 -0.0529,0.04586 -0.12347,0.04586 -0.0776,0 -0.13053,-0.04586 -0.0529,-0.04939 -0.0529,-0.151694 0,-0.102306 0.0529,-0.148167 0.0529,-0.04939 0.13053,-0.04939 z m 0.15169,0.709084 v 1.89089 h -0.31044 v -1.89089 z m 2.24367,0.941917 q 0,0.469195 -0.23989,0.726723 -0.23636,0.257528 -0.64206,0.257528 -0.25047,0 -0.44803,-0.112889 -0.19402,-0.116417 -0.30691,-0.335139 -0.11289,-0.22225 -0.11289,-0.536223 0,-0.469194 0.23283,-0.723195 0.23636,-0.254 0.64558,-0.254 0.254,0 0.45156,0.116417 0.19756,0.112889 0.30692,0.331611 0.11289,0.215195 0.11289,0.529167 z m -1.42875,0 q 0,0.335139 0.13052,0.532695 0.13406,0.194028 0.42334,0.194028 0.28575,0 0.4198,-0.194028 0.13406,-0.197556 0.13406,-0.532695 0,-0.335139 -0.13406,-0.525639 -0.13405,-0.1905 -0.42333,-0.1905 -0.28928,0 -0.41981,0.1905 -0.13052,0.1905 -0.13052,0.525639 z m 2.82927,-0.977195 q 0.33867,0 0.51153,0.165806 0.17286,0.165806 0.17286,0.529167 v 1.231195 h -0.30691 v -1.210028 q 0,-0.455084 -0.42334,-0.455084 -0.31397,0 -0.43392,0.176389 -0.11994,0.176389 -0.11994,0.508 v 0.980723 h -0.31044 v -1.89089 h 0.25047 l 0.0459,0.257528 h 0.0176 q 0.0917,-0.148167 0.254,-0.218722 0.16228,-0.07408 0.34219,-0.07408 z"
         id="text21"
         aria-label="Action" />
    </g>
    <path
       style="fill:none;fill-opacity:1;stroke:#000000;stroke-width:0.352777;stroke-dasharray:none;stroke-dashoffset:0;stroke-opacity:1;marker-end:url(#ArrowTriangleStylized);paint-order:stroke fill markers"
       d="M 94.088276,39.288079 121.31589,51.412443"
       id="path30"
       sodipodi:nodetypes="cc" />
    <g
       id="g31"
       transform="translate(51.131727,-51.647274)">
      <rect
         style="fill:#000000;fill-opacity:1;stroke:none;stroke-width:0.352777;stroke-dasharray:none;stroke-dashoffset:0;stroke-opacity:1;paint-order:stroke fill markers"
         id="rect23"
         width="15.543165"
         height="5.5765557"
         x="49.441074"
         y="94.487999"
         rx="0"
         ry="0" />
      <path
         style="font-weight:500;font-size:3.52778px;font-family:'CMU Typewriter Text';-inkscape-font-specification:'CMU Typewriter Text Medium';fill:#ffffff;stroke-width:0.529167;paint-order:stroke fill markers"
         d="m 51.837636,95.815088 q 0.469195,0 0.691445,0.179917 0.225778,0.176389 0.225778,0.536223 0,0.201083 -0.07408,0.335139 -0.07408,0.134055 -0.1905,0.215194 -0.112889,0.08114 -0.239889,0.123473 l 0.691445,1.128889 h -0.370417 l -0.610306,-1.040695 h -0.500945 v 1.040695 h -0.3175 v -2.518835 z m -0.01764,0.275167 h -0.359834 v 0.934862 h 0.377473 q 0.306917,0 0.448028,-0.119945 0.141111,-0.123472 0.141111,-0.359833 0,-0.246945 -0.148167,-0.34925 -0.148166,-0.105834 -0.458611,-0.105834 z m 2.204861,0.3175 q 0.23989,0 0.416279,0.105834 0.176389,0.105833 0.268111,0.299861 0.09525,0.1905 0.09525,0.448028 v 0.186973 h -1.294695 q 0.0071,0.321028 0.162277,0.490361 0.158751,0.165806 0.440973,0.165806 0.179917,0 0.3175,-0.03175 0.141111,-0.03528 0.289278,-0.09878 v 0.271639 q -0.144639,0.0635 -0.28575,0.09172 -0.141111,0.03175 -0.335139,0.03175 -0.271639,0 -0.47625,-0.109361 -0.204612,-0.109361 -0.321028,-0.324556 -0.112889,-0.215194 -0.112889,-0.532695 0,-0.310444 0.102305,-0.532694 0.105834,-0.222251 0.292806,-0.342195 0.1905,-0.119945 0.440972,-0.119945 z m -0.0035,0.254001 q -0.22225,0 -0.352778,0.144639 -0.127,0.141111 -0.151695,0.395111 h 0.963084 q -0.0035,-0.239889 -0.112889,-0.388056 -0.109361,-0.151694 -0.345722,-0.151694 z m 1.573387,1.672167 H 55.284273 V 95.65281 h 0.310445 z m 1.329971,-1.926168 q 0.239889,0 0.416278,0.105834 0.176389,0.105833 0.268111,0.299861 0.09525,0.1905 0.09525,0.448028 v 0.186973 h -1.294695 q 0.0071,0.321028 0.162278,0.490361 0.15875,0.165806 0.440972,0.165806 0.179917,0 0.317501,-0.03175 0.141111,-0.03528 0.289277,-0.09878 v 0.271639 q -0.144639,0.0635 -0.28575,0.09172 -0.141111,0.03175 -0.335139,0.03175 -0.271639,0 -0.47625,-0.109361 -0.204611,-0.109361 -0.321028,-0.324556 -0.112889,-0.215194 -0.112889,-0.532695 0,-0.310444 0.102306,-0.532694 0.105833,-0.222251 0.292805,-0.342195 0.1905,-0.119945 0.440973,-0.119945 z m -0.0035,0.254001 q -0.22225,0 -0.352778,0.144639 -0.127,0.141111 -0.151695,0.395111 h 0.963084 q -0.0035,-0.239889 -0.112889,-0.388056 -0.109361,-0.151694 -0.345722,-0.151694 z m 1.979082,-0.250473 q 0.345722,0 0.511528,0.151695 0.165805,0.151694 0.165805,0.483306 v 1.287639 h -0.225777 l -0.05997,-0.268111 h -0.01411 q -0.123472,0.155222 -0.261056,0.229306 -0.137583,0.07408 -0.373944,0.07408 -0.257528,0 -0.426862,-0.134056 -0.169333,-0.137583 -0.169333,-0.426861 0,-0.282222 0.22225,-0.433917 0.22225,-0.155222 0.684389,-0.169333 l 0.321028,-0.01058 v -0.112889 q 0,-0.236361 -0.102305,-0.328083 -0.102306,-0.09172 -0.289278,-0.09172 -0.148167,0 -0.282223,0.04586 -0.134055,0.04233 -0.250472,0.09878 l -0.09525,-0.232834 q 0.123472,-0.06703 0.292806,-0.112889 0.169333,-0.04939 0.352778,-0.04939 z m 0.370417,0.998362 -0.278695,0.01058 q -0.352778,0.01411 -0.490361,0.112889 -0.134056,0.09878 -0.134056,0.278695 0,0.15875 0.09525,0.232833 0.09878,0.07408 0.250472,0.07408 0.236362,0 0.395112,-0.130528 0.162278,-0.134056 0.162278,-0.409223 z m 2.123725,0.402167 q 0,0.275167 -0.204611,0.416278 -0.204611,0.141111 -0.550333,0.141111 -0.197556,0 -0.342195,-0.03175 -0.141111,-0.03175 -0.250473,-0.08819 v -0.282223 q 0.112889,0.05644 0.27164,0.105834 0.162277,0.04586 0.328083,0.04586 0.236361,0 0.342195,-0.07408 0.105833,-0.07761 0.105833,-0.204611 0,-0.07055 -0.0388,-0.127 -0.03881,-0.05644 -0.141112,-0.112889 -0.09878,-0.05644 -0.28575,-0.127 -0.183444,-0.07056 -0.313972,-0.141111 -0.130528,-0.07056 -0.201084,-0.169334 -0.07055,-0.09878 -0.07055,-0.254 0,-0.239889 0.194028,-0.370417 0.197555,-0.130528 0.515056,-0.130528 0.172861,0 0.321027,0.03528 0.151695,0.03528 0.282223,0.09172 L 61.249746,96.7817 q -0.119944,-0.04939 -0.250472,-0.08467 -0.130528,-0.03528 -0.268111,-0.03528 -0.1905,0 -0.292806,0.0635 -0.09878,0.05997 -0.09878,0.165805 0,0.08114 0.04586,0.134056 0.04586,0.05292 0.151695,0.105833 0.109361,0.05292 0.289278,0.119945 0.179917,0.06703 0.306917,0.137583 0.127,0.07056 0.194028,0.172862 0.06703,0.09878 0.06703,0.250472 z m 1.188864,-1.404057 q 0.239889,0 0.416278,0.105834 0.176389,0.105833 0.268111,0.299861 0.09525,0.1905 0.09525,0.448028 v 0.186973 h -1.294695 q 0.0071,0.321028 0.162278,0.490361 0.15875,0.165806 0.440972,0.165806 0.179917,0 0.3175,-0.03175 0.141112,-0.03528 0.289278,-0.09878 v 0.271639 q -0.144639,0.0635 -0.28575,0.09172 -0.141111,0.03175 -0.335139,0.03175 -0.271639,0 -0.47625,-0.109361 -0.204612,-0.109361 -0.321028,-0.324556 -0.112889,-0.215194 -0.112889,-0.532695 0,-0.310444 0.102305,-0.532694 0.105834,-0.222251 0.292806,-0.342195 0.1905,-0.119945 0.440973,-0.119945 z m -0.0035,0.254001 q -0.22225,0 -0.352778,0.144639 -0.127,0.141111 -0.151695,0.395111 h 0.963084 q -0.0035,-0.239889 -0.112889,-0.388056 -0.109361,-0.151694 -0.345722,-0.151694 z"
         id="text23"
         aria-label="Release" />
    </g>
  </g>
</svg>
